<svg width="208" height="56" viewBox="0 0 208 56" fill="none" xmlns="http://www.w3.org/2000/svg">
<path fill-rule="evenodd" clip-rule="evenodd" d="M26.8748 9.06576C26.8748 6.32505 29.0965 4.10327 31.8372 4.10327H43.8139C46.5546 4.10327 48.7764 6.32505 48.7764 9.06576V21.0424C48.7764 23.7831 46.5546 26.0049 43.8139 26.0049H31.8372C29.0965 26.0049 26.8748 23.7831 26.8748 21.0424V9.06576ZM31.8372 8.08539C31.2958 8.08539 30.8569 8.52432 30.8569 9.06576V21.0424C30.8569 21.5839 31.2958 22.0228 31.8372 22.0228H43.8139C44.3554 22.0228 44.7943 21.5839 44.7943 21.0424V9.06576C44.7943 8.52432 44.3554 8.08539 43.8139 8.08539H31.8372Z" fill="white"/>
<path fill-rule="evenodd" clip-rule="evenodd" d="M0.990479 9.06576C0.990479 6.32505 3.21226 4.10327 5.95297 4.10327H20.9011V8.08539H5.95297C5.41152 8.08539 4.9726 8.52432 4.9726 9.06576V21.0424C4.9726 21.5839 5.41152 22.0228 5.95296 22.0228H20.9011V26.0049H5.95296C3.21226 26.0049 0.990479 23.7831 0.990479 21.0424V9.06576Z" fill="white"/>
<path fill-rule="evenodd" clip-rule="evenodd" d="M26.8748 34.9574C26.8748 32.2167 29.0965 29.9949 31.8372 29.9949H43.8139C46.5546 29.9949 48.7764 32.2167 48.7764 34.9574V46.934C48.7764 49.6747 46.5546 51.8965 43.8139 51.8965H31.8372C29.0965 51.8965 26.8748 49.6747 26.8748 46.934V34.9574ZM31.8372 33.977C31.2958 33.977 30.8569 34.4159 30.8569 34.9574V46.934C30.8569 47.4755 31.2958 47.9144 31.8372 47.9144H43.8139C44.3554 47.9144 44.7943 47.4755 44.7943 46.934V34.9574C44.7943 34.4159 44.3554 33.977 43.8139 33.977H31.8372Z" fill="white"/>
<path fill-rule="evenodd" clip-rule="evenodd" d="M0.990723 34.9574C0.990723 32.2167 3.21251 29.9949 5.95321 29.9949H20.9013V33.977H5.95321C5.41177 33.977 4.97284 34.4159 4.97284 34.9574V46.934C4.97284 47.4755 5.41177 47.9144 5.95321 47.9144H20.9013V51.8965H5.95321C3.2125 51.8965 0.990723 49.6747 0.990723 46.934V34.9574Z" fill="white"/>
<path d="M60.6621 4.22852V51.7714" stroke="white" stroke-width="2.97143"/>
<path d="M80.7498 22.3285C79.1729 22.3285 77.8223 21.9854 76.698 21.2991C75.5737 20.6056 74.7086 19.6419 74.1026 18.4081C73.504 17.1743 73.2047 15.7434 73.2047 14.1154C73.2047 12.4874 73.504 11.0565 74.1026 9.82268C74.7086 8.58889 75.5737 7.62886 76.698 6.94261C77.8223 6.24906 79.1729 5.90228 80.7498 5.90228C82.5676 5.90228 84.0825 6.35857 85.2944 7.27114C86.5063 8.1764 87.3568 9.39925 87.8459 10.9397L85.1849 11.6734C84.8782 10.644 84.3563 9.84093 83.6189 9.26419C82.8815 8.68014 81.9252 8.38812 80.7498 8.38812C79.6912 8.38812 78.8078 8.62539 78.0997 9.09992C77.3988 9.57446 76.8695 10.2425 76.5118 11.1039C76.1614 11.9581 75.9825 12.9619 75.9752 14.1154C75.9752 15.2689 76.1504 16.2764 76.5009 17.1378C76.8586 17.992 77.3915 18.6563 78.0997 19.1309C78.8078 19.6054 79.6912 19.8427 80.7498 19.8427C81.9252 19.8427 82.8815 19.5507 83.6189 18.9666C84.3563 18.3826 84.8782 17.5795 85.1849 16.5574L87.8459 17.2911C87.3568 18.8316 86.5063 20.0581 85.2944 20.9706C84.0825 21.8759 82.5676 22.3285 80.7498 22.3285ZM95.4738 22.3285C94.2912 22.3285 93.2581 22.0621 92.3748 21.5291C91.4914 20.9962 90.8051 20.2625 90.316 19.328C89.8342 18.3862 89.5933 17.3057 89.5933 16.0866C89.5933 14.8455 89.8415 13.7577 90.3379 12.8232C90.8343 11.8887 91.5243 11.1587 92.4076 10.633C93.291 10.1074 94.3131 9.84458 95.4738 9.84458C96.6638 9.84458 97.7005 10.1111 98.5839 10.644C99.4673 11.1769 100.154 11.9143 100.643 12.8561C101.132 13.7905 101.376 14.8674 101.376 16.0866C101.376 17.313 101.128 18.3972 100.632 19.3389C100.143 20.2734 99.4563 21.0071 98.5729 21.5401C97.6896 22.0657 96.6565 22.3285 95.4738 22.3285ZM95.4738 19.8536C96.5251 19.8536 97.3063 19.5032 97.8173 18.8024C98.3284 18.1015 98.5839 17.1962 98.5839 16.0866C98.5839 14.9404 98.3247 14.0278 97.8064 13.3488C97.288 12.6626 96.5105 12.3195 95.4738 12.3195C94.7657 12.3195 94.1817 12.4801 93.7217 12.8013C93.2691 13.1152 92.9333 13.5569 92.7142 14.1264C92.4952 14.6885 92.3857 15.3419 92.3857 16.0866C92.3857 17.2327 92.6449 18.149 93.1632 18.8352C93.6889 19.5142 94.4591 19.8536 95.4738 19.8536ZM108.224 22.3395C107.348 22.3395 106.625 22.1935 106.056 21.9014C105.486 21.6094 105.034 21.2371 104.698 20.7845C104.362 20.3318 104.114 19.85 103.953 19.3389C103.793 18.8279 103.687 18.3461 103.636 17.8934C103.592 17.4335 103.57 17.0612 103.57 16.7765V10.1731H106.242V15.8675C106.242 16.2326 106.268 16.645 106.319 17.105C106.37 17.5576 106.487 17.9956 106.669 18.4191C106.859 18.8352 107.136 19.1783 107.501 19.4485C107.874 19.7186 108.374 19.8536 109.002 19.8536C109.338 19.8536 109.67 19.7989 109.998 19.6894C110.327 19.5799 110.622 19.3937 110.885 19.1309C111.155 18.8608 111.371 18.4921 111.531 18.0248C111.692 17.5576 111.772 16.9663 111.772 16.2508L113.338 16.9188C113.338 17.9263 113.141 18.8389 112.747 19.6565C112.36 20.4742 111.787 21.1276 111.028 21.6167C110.268 22.0986 109.334 22.3395 108.224 22.3395ZM112.09 22V18.3315H111.772V10.1731H114.422V22H112.09ZM125.679 22V16.3056C125.679 15.9332 125.654 15.5208 125.603 15.0681C125.552 14.6155 125.431 14.1811 125.241 13.765C125.059 13.3415 124.781 12.9948 124.409 12.7246C124.044 12.4545 123.548 12.3195 122.92 12.3195C122.584 12.3195 122.252 12.3742 121.923 12.4837C121.595 12.5932 121.295 12.7831 121.025 13.0532C120.762 13.316 120.551 13.681 120.39 14.1483C120.229 14.6082 120.149 15.1995 120.149 15.9223L118.583 15.2543C118.583 14.2468 118.777 13.3342 119.164 12.5166C119.558 11.6989 120.135 11.0492 120.894 10.5673C121.653 10.0782 122.588 9.83363 123.697 9.83363C124.573 9.83363 125.296 9.97964 125.865 10.2717C126.435 10.5637 126.888 10.936 127.223 11.3886C127.559 11.8413 127.807 12.3231 127.968 12.8342C128.129 13.3452 128.231 13.8307 128.275 14.2906C128.326 14.7433 128.351 15.1119 128.351 15.3967V22H125.679ZM117.477 22V10.1731H119.832V13.8416H120.149V22H117.477ZM138.141 22C137.36 22.146 136.593 22.2081 135.841 22.1862C135.097 22.1716 134.429 22.0365 133.837 21.781C133.246 21.5182 132.797 21.1057 132.49 20.5435C132.22 20.0325 132.078 19.5105 132.063 18.9776C132.049 18.4446 132.041 17.8423 132.041 17.1707V6.88786H134.669V17.0174C134.669 17.4919 134.673 17.908 134.68 18.2658C134.695 18.6235 134.772 18.9155 134.91 19.1418C135.173 19.5799 135.593 19.8244 136.17 19.8755C136.746 19.9266 137.403 19.8974 138.141 19.7879V22ZM129.895 12.2428V10.1731H138.141V12.2428H129.895ZM145.462 22.3285C144.265 22.3285 143.213 22.0694 142.308 21.551C141.403 21.0327 140.695 20.3136 140.184 19.3937C139.68 18.4738 139.428 17.4153 139.428 16.218C139.428 14.9258 139.676 13.8051 140.173 12.8561C140.669 11.8997 141.359 11.1587 142.242 10.633C143.126 10.1074 144.148 9.84458 145.309 9.84458C146.535 9.84458 147.575 10.133 148.43 10.7097C149.291 11.2791 149.93 12.0859 150.346 13.1298C150.762 14.1738 150.919 15.404 150.817 16.8203H148.2V15.8566C148.192 14.5717 147.966 13.6336 147.521 13.0422C147.075 12.4509 146.375 12.1552 145.418 12.1552C144.338 12.1552 143.535 12.491 143.009 13.1627C142.483 13.827 142.221 14.8017 142.221 16.0866C142.221 17.2838 142.483 18.211 143.009 18.8681C143.535 19.5251 144.301 19.8536 145.309 19.8536C145.958 19.8536 146.517 19.7113 146.984 19.4266C147.459 19.1345 147.824 18.7148 148.079 18.1672L150.686 18.9557C150.233 20.0216 149.532 20.8502 148.583 21.4415C147.641 22.0329 146.601 22.3285 145.462 22.3285ZM141.388 16.8203V14.8272H149.525V16.8203H141.388ZM153.26 22V10.1731H155.593V13.0532L155.308 12.6808C155.454 12.2866 155.648 11.9289 155.889 11.6077C156.137 11.2791 156.432 11.009 156.776 10.7973C157.068 10.6002 157.389 10.4469 157.739 10.3374C158.097 10.2206 158.462 10.1512 158.834 10.1293C159.207 10.1001 159.568 10.1147 159.918 10.1731V12.637C159.568 12.5348 159.163 12.502 158.703 12.5385C158.25 12.575 157.841 12.7027 157.476 12.9218C157.111 13.1189 156.812 13.3707 156.578 13.6774C156.352 13.984 156.184 14.3344 156.075 14.7287C155.965 15.1156 155.91 15.5354 155.91 15.988V22H153.26ZM168.94 22C168.159 22.146 167.392 22.2081 166.64 22.1862C165.896 22.1716 165.228 22.0365 164.636 21.781C164.045 21.5182 163.596 21.1057 163.289 20.5435C163.019 20.0325 162.877 19.5105 162.862 18.9776C162.848 18.4446 162.84 17.8423 162.84 17.1707V6.88786H165.469V17.0174C165.469 17.4919 165.472 17.908 165.48 18.2658C165.494 18.6235 165.571 18.9155 165.71 19.1418C165.972 19.5799 166.392 19.8244 166.969 19.8755C167.546 19.9266 168.203 19.8974 168.94 19.7879V22ZM160.694 12.2428V10.1731H168.94V12.2428H160.694ZM176.108 22.3285C174.925 22.3285 173.892 22.0621 173.009 21.5291C172.125 20.9962 171.439 20.2625 170.95 19.328C170.468 18.3862 170.227 17.3057 170.227 16.0866C170.227 14.8455 170.475 13.7577 170.972 12.8232C171.468 11.8887 172.158 11.1587 173.042 10.633C173.925 10.1074 174.947 9.84458 176.108 9.84458C177.298 9.84458 178.335 10.1111 179.218 10.644C180.101 11.1769 180.788 11.9143 181.277 12.8561C181.766 13.7905 182.01 14.8674 182.01 16.0866C182.01 17.313 181.762 18.3972 181.266 19.3389C180.777 20.2734 180.09 21.0071 179.207 21.5401C178.324 22.0657 177.291 22.3285 176.108 22.3285ZM176.108 19.8536C177.159 19.8536 177.94 19.5032 178.451 18.8024C178.962 18.1015 179.218 17.1962 179.218 16.0866C179.218 14.9404 178.959 14.0278 178.44 13.3488C177.922 12.6626 177.145 12.3195 176.108 12.3195C175.4 12.3195 174.816 12.4801 174.356 12.8013C173.903 13.1152 173.567 13.5569 173.348 14.1264C173.129 14.6885 173.02 15.3419 173.02 16.0866C173.02 17.2327 173.279 18.149 173.797 18.8352C174.323 19.5142 175.093 19.8536 176.108 19.8536ZM190.107 22.3285C188.953 22.3285 187.986 22.0548 187.205 21.5072C186.423 20.9597 185.836 20.215 185.442 19.2732C185.047 18.3242 184.85 17.2619 184.85 16.0866C184.85 14.8966 185.047 13.8307 185.442 12.8889C185.836 11.9471 186.413 11.2061 187.172 10.6659C187.938 10.1184 188.884 9.84458 190.008 9.84458C191.125 9.84458 192.092 10.1184 192.91 10.6659C193.735 11.2061 194.374 11.9471 194.826 12.8889C195.279 13.8234 195.505 14.8893 195.505 16.0866C195.505 17.2692 195.283 18.3315 194.837 19.2732C194.392 20.215 193.764 20.9597 192.954 21.5072C192.143 22.0548 191.194 22.3285 190.107 22.3285ZM184.401 27.2564V10.1731H186.734V18.4738H187.062V27.2564H184.401ZM189.701 19.9631C190.388 19.9631 190.953 19.7916 191.399 19.4485C191.844 19.1053 192.173 18.6417 192.384 18.0577C192.603 17.4664 192.713 16.8093 192.713 16.0866C192.713 15.3711 192.603 14.7213 192.384 14.1373C192.165 13.546 191.826 13.0787 191.366 12.7356C190.906 12.3852 190.322 12.21 189.614 12.21C188.942 12.21 188.395 12.3742 187.971 12.7027C187.548 13.024 187.234 13.4766 187.029 14.0606C186.832 14.6374 186.734 15.3127 186.734 16.0866C186.734 16.8531 186.832 17.5284 187.029 18.1125C187.234 18.6965 187.551 19.1528 187.982 19.4813C188.42 19.8025 188.993 19.9631 189.701 19.9631ZM202.208 22.3285C200.748 22.3285 199.561 22 198.649 21.343C197.736 20.6859 197.181 19.7624 196.984 18.5724L199.678 18.1563C199.817 18.7403 200.123 19.2002 200.598 19.5361C201.072 19.8719 201.671 20.0398 202.394 20.0398C203.029 20.0398 203.518 19.9157 203.861 19.6675C204.212 19.412 204.387 19.0652 204.387 18.6271C204.387 18.357 204.321 18.1417 204.19 17.981C204.066 17.8131 203.788 17.6525 203.357 17.4992C202.927 17.3459 202.266 17.1524 201.375 16.9188C200.382 16.656 199.594 16.3749 199.01 16.0756C198.426 15.769 198.006 15.4076 197.751 14.9915C197.495 14.5753 197.367 14.0716 197.367 13.4803C197.367 12.7429 197.561 12.1005 197.948 11.5529C198.335 11.0054 198.875 10.5856 199.568 10.2936C200.262 9.99424 201.08 9.84458 202.021 9.84458C202.941 9.84458 203.755 9.98694 204.463 10.2717C205.179 10.5564 205.756 10.9616 206.194 11.4872C206.632 12.0128 206.902 12.6297 207.004 13.3379L204.31 13.8197C204.244 13.316 204.015 12.9181 203.62 12.6261C203.233 12.3341 202.715 12.1698 202.065 12.1333C201.445 12.0968 200.945 12.1917 200.565 12.418C200.185 12.637 199.996 12.9473 199.996 13.3488C199.996 13.5752 200.072 13.7686 200.226 13.9292C200.379 14.0899 200.685 14.2505 201.145 14.4111C201.613 14.5717 202.306 14.7688 203.226 15.0024C204.168 15.2433 204.92 15.5208 205.482 15.8347C206.051 16.1413 206.46 16.51 206.708 16.9407C206.964 17.3714 207.092 17.8934 207.092 18.5067C207.092 19.6967 206.657 20.6311 205.789 21.3101C204.927 21.989 203.733 22.3285 202.208 22.3285ZM80.7498 50.3285C79.1729 50.3285 77.8223 49.9854 76.698 49.2991C75.5737 48.6056 74.7086 47.6419 74.1026 46.4081C73.504 45.1743 73.2047 43.7434 73.2047 42.1154C73.2047 40.4874 73.504 39.0565 74.1026 37.8227C74.7086 36.5889 75.5737 35.6289 76.698 34.9426C77.8223 34.2491 79.1729 33.9023 80.7498 33.9023C82.5676 33.9023 84.0825 34.3586 85.2944 35.2711C86.5063 36.1764 87.3568 37.3992 87.8459 38.9397L85.1849 39.6734C84.8782 38.644 84.3563 37.8409 83.6189 37.2642C82.8815 36.6801 81.9252 36.3881 80.7498 36.3881C79.6912 36.3881 78.8078 36.6254 78.0997 37.0999C77.3988 37.5745 76.8695 38.2425 76.5118 39.1039C76.1614 39.9581 75.9825 40.9619 75.9752 42.1154C75.9752 43.2689 76.1504 44.2764 76.5009 45.1378C76.8586 45.992 77.3915 46.6563 78.0997 47.1309C78.8078 47.6054 79.6912 47.8427 80.7498 47.8427C81.9252 47.8427 82.8815 47.5507 83.6189 46.9666C84.3563 46.3826 84.8782 45.5795 85.1849 44.5574L87.8459 45.2911C87.3568 46.8316 86.5063 48.0581 85.2944 48.9706C84.0825 49.8759 82.5676 50.3285 80.7498 50.3285ZM95.4738 50.3285C94.2912 50.3285 93.2581 50.0621 92.3748 49.5291C91.4914 48.9962 90.8051 48.2625 90.316 47.328C89.8342 46.3862 89.5933 45.3057 89.5933 44.0866C89.5933 42.8455 89.8415 41.7577 90.3379 40.8232C90.8343 39.8887 91.5243 39.1587 92.4076 38.633C93.291 38.1074 94.3131 37.8446 95.4738 37.8446C96.6638 37.8446 97.7005 38.1111 98.5839 38.644C99.4673 39.1769 100.154 39.9143 100.643 40.8561C101.132 41.7905 101.376 42.8674 101.376 44.0866C101.376 45.313 101.128 46.3972 100.632 47.3389C100.143 48.2734 99.4563 49.0071 98.5729 49.5401C97.6896 50.0657 96.6565 50.3285 95.4738 50.3285ZM95.4738 47.8536C96.5251 47.8536 97.3063 47.5032 97.8173 46.8024C98.3284 46.1015 98.5839 45.1962 98.5839 44.0866C98.5839 42.9404 98.3247 42.0278 97.8064 41.3488C97.288 40.6626 96.5105 40.3195 95.4738 40.3195C94.7657 40.3195 94.1817 40.4801 93.7217 40.8013C93.2691 41.1152 92.9333 41.5569 92.7142 42.1264C92.4952 42.6885 92.3857 43.3419 92.3857 44.0866C92.3857 45.2327 92.6449 46.149 93.1632 46.8352C93.6889 47.5142 94.4591 47.8536 95.4738 47.8536ZM111.969 50V44.3056C111.969 43.9332 111.944 43.5208 111.893 43.0681C111.842 42.6155 111.721 42.1811 111.531 41.765C111.349 41.3415 111.071 40.9948 110.699 40.7246C110.334 40.4545 109.838 40.3195 109.21 40.3195C108.874 40.3195 108.542 40.3742 108.213 40.4837C107.885 40.5932 107.585 40.7831 107.315 41.0532C107.052 41.316 106.841 41.681 106.68 42.1483C106.52 42.6082 106.439 43.1995 106.439 43.9223L104.873 43.2543C104.873 42.2468 105.067 41.3342 105.454 40.5166C105.848 39.6989 106.425 39.0492 107.184 38.5673C107.943 38.0782 108.878 37.8336 109.987 37.8336C110.863 37.8336 111.586 37.9796 112.156 38.2717C112.725 38.5637 113.178 38.936 113.513 39.3886C113.849 39.8413 114.097 40.3231 114.258 40.8342C114.419 41.3452 114.521 41.8307 114.565 42.2906C114.616 42.7433 114.641 43.1119 114.641 43.3967V50H111.969ZM103.767 50V38.1731H106.122V41.8416H106.439V50H103.767ZM124.431 50C123.65 50.146 122.883 50.2081 122.131 50.1862C121.387 50.1716 120.719 50.0365 120.127 49.781C119.536 49.5182 119.087 49.1057 118.78 48.5435C118.51 48.0325 118.368 47.5105 118.353 46.9776C118.339 46.4446 118.331 45.8423 118.331 45.1707V34.8879H120.96V45.0174C120.96 45.4919 120.963 45.908 120.97 46.2658C120.985 46.6235 121.062 46.9155 121.2 47.1418C121.463 47.5799 121.883 47.8244 122.46 47.8755C123.037 47.9266 123.694 47.8974 124.431 47.7879V50ZM116.185 40.2428V38.1731H124.431V40.2428H116.185ZM126.974 50V38.1731H129.307V41.0532L129.022 40.6808C129.168 40.2866 129.361 39.9289 129.602 39.6077C129.85 39.2791 130.146 39.009 130.489 38.7973C130.781 38.6002 131.103 38.4469 131.453 38.3374C131.811 38.2206 132.176 38.1512 132.548 38.1293C132.92 38.1001 133.282 38.1147 133.632 38.1731V40.637C133.282 40.5348 132.877 40.502 132.417 40.5385C131.964 40.575 131.555 40.7027 131.19 40.9218C130.825 41.1189 130.526 41.3707 130.292 41.6774C130.066 41.984 129.898 42.3344 129.788 42.7287C129.679 43.1156 129.624 43.5354 129.624 43.988V50H126.974ZM138.751 50.3285C137.897 50.3285 137.174 50.1679 136.583 49.8467C135.991 49.5182 135.542 49.0838 135.236 48.5435C134.936 48.0033 134.787 47.4083 134.787 46.7586C134.787 46.1891 134.882 45.6781 135.072 45.2254C135.261 44.7655 135.553 44.3713 135.948 44.0427C136.342 43.7069 136.853 43.4332 137.481 43.2214C137.955 43.0681 138.51 42.9294 139.145 42.8053C139.788 42.6812 140.481 42.568 141.226 42.4658C141.978 42.3563 142.763 42.2395 143.58 42.1154L142.639 42.652C142.646 41.8343 142.463 41.232 142.091 40.8451C141.719 40.4582 141.091 40.2647 140.207 40.2647C139.675 40.2647 139.16 40.3888 138.663 40.637C138.167 40.8853 137.82 41.3123 137.623 41.9183L135.214 41.1627C135.506 40.1625 136.061 39.3594 136.878 38.7535C137.703 38.1476 138.813 37.8446 140.207 37.8446C141.259 37.8446 142.182 38.0161 142.978 38.3593C143.781 38.7024 144.376 39.2645 144.763 40.0457C144.975 40.4618 145.102 40.8889 145.146 41.3269C145.19 41.7577 145.212 42.2286 145.212 42.7396V50H142.901V47.4375L143.285 47.8536C142.752 48.7078 142.128 49.3356 141.412 49.7372C140.704 50.1314 139.817 50.3285 138.751 50.3285ZM139.277 48.226C139.875 48.226 140.386 48.1201 140.81 47.9084C141.233 47.6967 141.569 47.4375 141.817 47.1309C142.073 46.8243 142.244 46.5359 142.332 46.2658C142.471 45.9299 142.547 45.5467 142.562 45.1159C142.584 44.6779 142.595 44.3238 142.595 44.0537L143.405 44.2946C142.609 44.4187 141.927 44.5282 141.357 44.6231C140.788 44.7181 140.299 44.8093 139.89 44.8969C139.481 44.9772 139.12 45.0685 138.806 45.1707C138.499 45.2802 138.24 45.408 138.028 45.554C137.817 45.7 137.652 45.8679 137.535 46.0577C137.426 46.2475 137.371 46.4702 137.371 46.7257C137.371 47.0177 137.444 47.2769 137.59 47.5032C137.736 47.7222 137.948 47.8974 138.225 48.0289C138.51 48.1603 138.861 48.226 139.277 48.226ZM153.199 50.3285C151.98 50.3285 150.939 50.0584 150.078 49.5182C149.216 48.9706 148.556 48.226 148.096 47.2842C147.643 46.3424 147.413 45.2765 147.406 44.0866C147.413 42.8747 147.65 41.8015 148.118 40.867C148.592 39.9252 149.264 39.1879 150.133 38.6549C151.001 38.1147 152.034 37.8446 153.232 37.8446C154.575 37.8446 155.71 38.1841 156.637 38.863C157.572 39.5347 158.182 40.4545 158.466 41.6226L155.838 42.3344C155.634 41.6993 155.294 41.2065 154.82 40.8561C154.345 40.4983 153.805 40.3195 153.199 40.3195C152.513 40.3195 151.947 40.4837 151.502 40.8123C151.056 41.1335 150.728 41.5788 150.516 42.1483C150.304 42.7177 150.198 43.3638 150.198 44.0866C150.198 45.2108 150.45 46.1198 150.954 46.8133C151.458 47.5069 152.206 47.8536 153.199 47.8536C153.9 47.8536 154.451 47.693 154.852 47.3718C155.261 47.0506 155.568 46.587 155.772 45.981L158.466 46.5833C158.101 47.7879 157.462 48.7151 156.55 49.3649C155.637 50.0073 154.52 50.3285 153.199 50.3285ZM167.593 50C166.811 50.146 166.045 50.2081 165.293 50.1862C164.548 50.1716 163.88 50.0365 163.289 49.781C162.698 49.5182 162.249 49.1057 161.942 48.5435C161.672 48.0325 161.529 47.5105 161.515 46.9776C161.5 46.4446 161.493 45.8423 161.493 45.1707V34.8879H164.121V45.0174C164.121 45.4919 164.125 45.908 164.132 46.2658C164.147 46.6235 164.223 46.9155 164.362 47.1418C164.625 47.5799 165.045 47.8244 165.621 47.8755C166.198 47.9266 166.855 47.8974 167.593 47.7879V50ZM159.347 40.2428V38.1731H167.593V40.2428H159.347ZM174.76 50.3285C173.578 50.3285 172.545 50.0621 171.661 49.5291C170.778 48.9962 170.092 48.2625 169.603 47.328C169.121 46.3862 168.88 45.3057 168.88 44.0866C168.88 42.8455 169.128 41.7577 169.624 40.8232C170.121 39.8887 170.811 39.1587 171.694 38.633C172.578 38.1074 173.6 37.8446 174.76 37.8446C175.95 37.8446 176.987 38.1111 177.87 38.644C178.754 39.1769 179.44 39.9143 179.929 40.8561C180.418 41.7905 180.663 42.8674 180.663 44.0866C180.663 45.313 180.415 46.3972 179.918 47.3389C179.429 48.2734 178.743 49.0071 177.859 49.5401C176.976 50.0657 175.943 50.3285 174.76 50.3285ZM174.76 47.8536C175.812 47.8536 176.593 47.5032 177.104 46.8024C177.615 46.1015 177.87 45.1962 177.87 44.0866C177.87 42.9404 177.611 42.0278 177.093 41.3488C176.575 40.6626 175.797 40.3195 174.76 40.3195C174.052 40.3195 173.468 40.4801 173.008 40.8013C172.556 41.1152 172.22 41.5569 172.001 42.1264C171.782 42.6885 171.672 43.3419 171.672 44.0866C171.672 45.2327 171.931 46.149 172.45 46.8352C172.975 47.5142 173.746 47.8536 174.76 47.8536ZM183.076 50V38.1731H185.408V41.0532L185.123 40.6808C185.269 40.2866 185.463 39.9289 185.704 39.6077C185.952 39.2791 186.248 39.009 186.591 38.7973C186.883 38.6002 187.204 38.4469 187.555 38.3374C187.912 38.2206 188.277 38.1512 188.65 38.1293C189.022 38.1001 189.383 38.1147 189.734 38.1731V40.637C189.383 40.5348 188.978 40.502 188.518 40.5385C188.066 40.575 187.657 40.7027 187.292 40.9218C186.927 41.1189 186.627 41.3707 186.394 41.6774C186.167 41.984 186 42.3344 185.89 42.7287C185.781 43.1156 185.726 43.5354 185.726 43.988V50H183.076ZM195.962 50.3285C194.502 50.3285 193.316 50 192.403 49.343C191.491 48.6859 190.936 47.7624 190.739 46.5724L193.433 46.1563C193.571 46.7403 193.878 47.2002 194.352 47.5361C194.827 47.8719 195.426 48.0398 196.148 48.0398C196.784 48.0398 197.273 47.9157 197.616 47.6675C197.966 47.412 198.141 47.0652 198.141 46.6271C198.141 46.357 198.076 46.1417 197.944 45.981C197.82 45.8131 197.543 45.6525 197.112 45.4992C196.681 45.3459 196.021 45.1524 195.13 44.9188C194.137 44.656 193.349 44.3749 192.765 44.0756C192.181 43.769 191.761 43.4076 191.505 42.9915C191.25 42.5753 191.122 42.0716 191.122 41.4803C191.122 40.7429 191.315 40.1005 191.702 39.5529C192.089 39.0054 192.63 38.5856 193.323 38.2936C194.017 37.9942 194.834 37.8446 195.776 37.8446C196.696 37.8446 197.51 37.9869 198.218 38.2717C198.934 38.5564 199.51 38.9616 199.948 39.4872C200.386 40.0128 200.656 40.6297 200.759 41.3379L198.065 41.8197C197.999 41.316 197.769 40.9181 197.375 40.6261C196.988 40.3341 196.47 40.1698 195.82 40.1333C195.199 40.0968 194.699 40.1917 194.32 40.418C193.94 40.637 193.75 40.9473 193.75 41.3488C193.75 41.5752 193.827 41.7686 193.98 41.9292C194.133 42.0899 194.44 42.2505 194.9 42.4111C195.367 42.5717 196.061 42.7688 196.981 43.0024C197.922 43.2433 198.674 43.5208 199.237 43.8347C199.806 44.1413 200.215 44.51 200.463 44.9407C200.719 45.3714 200.846 45.8934 200.846 46.5067C200.846 47.6967 200.412 48.6311 199.543 49.3101C198.682 49.989 197.488 50.3285 195.962 50.3285Z" fill="white"/>
</svg>
