<svg width="16" height="15" viewBox="0 0 16 15" fill="none" xmlns="http://www.w3.org/2000/svg">
<path d="M14.25 2.53125H12.0008L10.8906 0.864844C10.8477 0.800577 10.7896 0.747904 10.7215 0.711511C10.6533 0.675119 10.5773 0.656136 10.5 0.656251H5.5C5.42274 0.656136 5.34665 0.675119 5.2785 0.711511C5.21035 0.747904 5.15225 0.800577 5.10938 0.864844L3.99844 2.53125H1.75C1.29416 2.53125 0.856988 2.71233 0.53466 3.03466C0.212332 3.35699 0.03125 3.79416 0.03125 4.25V13C0.03125 13.4558 0.212332 13.893 0.53466 14.2153C0.856988 14.5377 1.29416 14.7188 1.75 14.7188H14.25C14.7058 14.7188 15.143 14.5377 15.4653 14.2153C15.7877 13.893 15.9688 13.4558 15.9688 13V4.25C15.9688 3.79416 15.7877 3.35699 15.4653 3.03466C15.143 2.71233 14.7058 2.53125 14.25 2.53125ZM15.0312 13C15.0312 13.2072 14.9489 13.4059 14.8024 13.5524C14.6559 13.6989 14.4572 13.7812 14.25 13.7812H1.75C1.5428 13.7812 1.34409 13.6989 1.19757 13.5524C1.05106 13.4059 0.96875 13.2072 0.96875 13V4.25C0.96875 4.0428 1.05106 3.84409 1.19757 3.69757C1.34409 3.55106 1.5428 3.46875 1.75 3.46875H4.25C4.32726 3.46887 4.40335 3.44988 4.4715 3.41349C4.53965 3.3771 4.59775 3.32442 4.64062 3.26016L5.75078 1.59375H10.2484L11.3594 3.26016C11.4023 3.32442 11.4604 3.3771 11.5285 3.41349C11.5967 3.44988 11.6727 3.46887 11.75 3.46875H14.25C14.4572 3.46875 14.6559 3.55106 14.8024 3.69757C14.9489 3.84409 15.0312 4.0428 15.0312 4.25V13ZM8 5.03125C7.35103 5.03125 6.71663 5.22369 6.17704 5.58424C5.63744 5.94479 5.21687 6.45725 4.96852 7.05682C4.72017 7.65639 4.65519 8.31614 4.7818 8.95264C4.90841 9.58914 5.22091 10.1738 5.67981 10.6327C6.1387 11.0916 6.72336 11.4041 7.35986 11.5307C7.99636 11.6573 8.65611 11.5923 9.25568 11.344C9.85525 11.0956 10.3677 10.6751 10.7283 10.1355C11.0888 9.59587 11.2812 8.96147 11.2812 8.3125C11.2812 7.44226 10.9355 6.60766 10.3202 5.99231C9.70484 5.37695 8.87024 5.03125 8 5.03125ZM8 10.6562C7.53645 10.6562 7.08331 10.5188 6.69788 10.2613C6.31245 10.0037 6.01205 9.63768 5.83466 9.20941C5.65726 8.78115 5.61085 8.3099 5.70128 7.85526C5.79172 7.40061 6.01494 6.983 6.34272 6.65522C6.6705 6.32744 7.08811 6.10422 7.54276 6.01378C7.9974 5.92335 8.46865 5.96977 8.89691 6.14716C9.32518 6.32455 9.69122 6.62496 9.94876 7.01038C10.2063 7.39581 10.3438 7.84895 10.3438 8.3125C10.3438 8.9341 10.0968 9.53024 9.65728 9.96978C9.21774 10.4093 8.6216 10.6562 8 10.6562Z" fill="white"/>
</svg>
