<svg width="24" height="24" viewBox="0 0 24 24" fill="none" xmlns="http://www.w3.org/2000/svg">
<g clip-path="url(#clip0_1227_1772)">
<rect width="24" height="24" rx="12" fill="#187A6B"/>
<path d="M19.3334 10.6667C19.3334 10.3131 19.1929 9.97399 18.9428 9.72394C18.6928 9.47389 18.3536 9.33342 18 9.33342H13.7867L14.4267 6.28675C14.44 6.22008 14.4467 6.14675 14.4467 6.07341C14.4467 5.80008 14.3334 5.54675 14.1534 5.36675L13.4467 4.66675L9.06002 9.05341C8.81335 9.30008 8.66669 9.63341 8.66669 10.0001V16.6667C8.66669 17.0204 8.80716 17.3595 9.05721 17.6096C9.30726 17.8596 9.6464 18.0001 10 18.0001H16C16.5534 18.0001 17.0267 17.6667 17.2267 17.1867L19.24 12.4867C19.3 12.3334 19.3334 12.1734 19.3334 12.0001V10.6667ZM4.66669 18.0001H7.33335V10.0001H4.66669V18.0001Z" fill="white"/>
</g>
<defs>
<clipPath id="clip0_1227_1772">
<rect width="24" height="24" rx="12" fill="white"/>
</clipPath>
</defs>
</svg>
