<svg width="21" height="20" viewBox="0 0 21 20" fill="none" xmlns="http://www.w3.org/2000/svg">
<path d="M18.8332 15.5041C18.8332 15.6698 18.7673 15.8288 18.6501 15.946C18.5329 16.0632 18.3739 16.1291 18.2082 16.1291H13.9582C13.819 16.6481 13.5124 17.1068 13.086 17.4339C12.6596 17.761 12.1372 17.9383 11.5998 17.9383C11.0624 17.9383 10.54 17.761 10.1137 17.4339C9.68727 17.1068 9.38071 16.6481 9.2415 16.1291H2.7915C2.62574 16.1291 2.46677 16.0632 2.34956 15.946C2.23235 15.8288 2.1665 15.6698 2.1665 15.5041C2.1665 15.3383 2.23235 15.1793 2.34956 15.0621C2.46677 14.9449 2.62574 14.8791 2.7915 14.8791H9.2415C9.38071 14.36 9.68727 13.9014 10.1137 13.5743C10.54 13.2472 11.0624 13.0699 11.5998 13.0699C12.1372 13.0699 12.6596 13.2472 13.086 13.5743C13.5124 13.9014 13.819 14.36 13.9582 14.8791H18.2082C18.3739 14.8791 18.5329 14.9449 18.6501 15.0621C18.7673 15.1793 18.8332 15.3383 18.8332 15.5041ZM18.8332 4.49573C18.8332 4.66149 18.7673 4.82047 18.6501 4.93768C18.5329 5.05489 18.3739 5.12073 18.2082 5.12073H16.1665C16.0273 5.6398 15.7207 6.09844 15.2944 6.42554C14.868 6.75265 14.3456 6.92994 13.8082 6.92994C13.2708 6.92994 12.7484 6.75265 12.322 6.42554C11.8956 6.09844 11.589 5.6398 11.4498 5.12073H2.7915C2.70943 5.12073 2.62816 5.10457 2.55233 5.07316C2.4765 5.04175 2.4076 4.99571 2.34956 4.93768C2.29153 4.87964 2.24549 4.81074 2.21408 4.73491C2.18267 4.65908 2.1665 4.57781 2.1665 4.49573C2.1665 4.41366 2.18267 4.33239 2.21408 4.25656C2.24549 4.18073 2.29153 4.11183 2.34956 4.05379C2.4076 3.99576 2.4765 3.94972 2.55233 3.91831C2.62816 3.8869 2.70943 3.87073 2.7915 3.87073H11.4498C11.589 3.35167 11.8956 2.89303 12.322 2.56593C12.7484 2.23882 13.2708 2.06152 13.8082 2.06152C14.3456 2.06152 14.868 2.23882 15.2944 2.56593C15.7207 2.89303 16.0273 3.35167 16.1665 3.87073H18.2082C18.2906 3.86961 18.3723 3.88501 18.4487 3.91603C18.525 3.94704 18.5943 3.99303 18.6526 4.05129C18.7109 4.10956 18.7569 4.1789 18.7879 4.25524C18.8189 4.33157 18.8343 4.41335 18.8332 4.49573ZM18.8332 9.99573C18.8343 10.0781 18.8189 10.1599 18.7879 10.2362C18.7569 10.3126 18.7109 10.3819 18.6526 10.4402C18.5943 10.4984 18.525 10.5444 18.4487 10.5754C18.3723 10.6065 18.2906 10.6219 18.2082 10.6207H8.45817C8.31897 11.1398 8.01241 11.5984 7.58602 11.9255C7.15964 12.2526 6.63724 12.4299 6.09984 12.4299C5.56243 12.4299 5.04004 12.2526 4.61365 11.9255C4.18727 11.5984 3.88071 11.1398 3.7415 10.6207H2.7915C2.62574 10.6207 2.46677 10.5549 2.34956 10.4377C2.23235 10.3205 2.1665 10.1615 2.1665 9.99573C2.1665 9.82997 2.23235 9.671 2.34956 9.55379C2.46677 9.43658 2.62574 9.37073 2.7915 9.37073H3.7415C3.88071 8.85167 4.18727 8.39303 4.61365 8.06593C5.04004 7.73882 5.56243 7.56152 6.09984 7.56152C6.63724 7.56152 7.15964 7.73882 7.58602 8.06593C8.01241 8.39303 8.31897 8.85167 8.45817 9.37073H18.2082C18.3739 9.37073 18.5329 9.43658 18.6501 9.55379C18.7673 9.671 18.8332 9.82997 18.8332 9.99573Z" fill="#282727"/>
</svg>
