<svg width="14" height="14" viewBox="0 0 14 14" fill="none" xmlns="http://www.w3.org/2000/svg">
<path d="M7.01628 13.6673C6.09184 13.6673 5.22545 13.4934 4.41711 13.1457C3.60878 12.7979 2.90267 12.3218 2.29878 11.7173C1.69489 11.1129 1.21878 10.4068 0.870448 9.59898C0.522115 8.79121 0.348504 7.9251 0.349615 7.00065C0.350726 6.07621 0.524615 5.2101 0.871281 4.40232C1.21795 3.59454 1.69406 2.88843 2.29961 2.28398C2.90517 1.67954 3.61073 1.20343 4.41628 0.855651C5.22184 0.507873 6.08823 0.333984 7.01545 0.333984C7.97267 0.333984 8.88434 0.531762 9.75045 0.927318C10.6166 1.32232 11.3716 1.87343 12.0154 2.58065V0.590651H12.8488V4.05232H9.38795V3.21898H11.4546C10.8746 2.5801 10.2052 2.07843 9.44628 1.71398C8.6885 1.34954 7.8785 1.16732 7.01628 1.16732C5.39073 1.16732 4.01211 1.73343 2.88045 2.86565C1.74878 3.99787 1.18267 5.37621 1.18211 7.00065C1.18156 8.6251 1.74767 10.0037 2.88045 11.1365C4.01323 12.2693 5.39156 12.8351 7.01545 12.834C8.47378 12.834 9.74295 12.359 10.8229 11.409C11.9029 10.459 12.5557 9.26732 12.7813 7.83398H13.6246C13.4268 9.51232 12.6991 10.904 11.4413 12.009C10.1835 13.1145 8.7085 13.6673 7.01628 13.6673Z" fill="white"/>
</svg>
