<svg width="32" height="32" viewBox="0 0 32 32" fill="none" xmlns="http://www.w3.org/2000/svg">
<rect width="32" height="32" rx="16" fill="#F4F4F6"/>
<path fill-rule="evenodd" clip-rule="evenodd" d="M16 7.25C11.172 7.25 7.25 11.172 7.25 16C7.25 20.828 11.172 24.75 16 24.75C20.828 24.75 24.75 20.828 24.75 16C24.75 11.172 20.828 7.25 16 7.25ZM16 8.01088C20.4168 8.01088 23.9891 11.5832 23.9891 16C23.9891 20.4168 20.4168 23.9891 16 23.9891C15.1921 23.9891 14.4127 23.8682 13.678 23.6458C14.0053 23.0987 14.4278 22.3166 14.5957 21.6708C14.6954 21.288 15.1054 19.7263 15.1054 19.7263C15.3718 20.235 16.1504 20.6655 16.9793 20.6655C19.446 20.6655 21.2243 18.397 21.2243 15.5779C21.2243 12.8753 19.0189 10.8537 16.1813 10.8537C12.651 10.8537 10.7772 13.2231 10.7772 15.8031C10.7772 17.0029 11.4154 18.4965 12.4371 18.9721C12.5919 19.0442 12.675 19.013 12.7106 18.8629C12.7379 18.749 12.876 18.1939 12.9379 17.9356C12.9578 17.8532 12.9482 17.782 12.8815 17.7008C12.5433 17.2906 12.2722 16.5371 12.2722 15.8343C12.2722 14.0301 13.638 12.2841 15.9651 12.2841C17.9744 12.2841 19.3816 13.6538 19.3816 15.6121C19.3816 17.8246 18.2644 19.3578 16.8107 19.3578C16.0078 19.3578 15.4067 18.6936 15.5995 17.8791C15.8307 16.9071 16.2771 15.8581 16.2771 15.1559C16.2771 14.528 15.9402 14.0042 15.2421 14.0042C14.4213 14.0042 13.762 14.8528 13.762 15.9903C13.762 16.7142 14.0072 17.2045 14.0072 17.2045C14.0072 17.2045 13.1964 20.6324 13.0479 21.2704C12.8991 21.9079 12.939 22.7665 13.0004 23.4058C10.0733 22.2211 8.01088 19.3552 8.01088 16C8.01088 11.5832 11.5832 8.01088 16 8.01088Z" fill="#282727"/>
</svg>
