<svg width="32" height="32" viewBox="0 0 32 32" fill="none" xmlns="http://www.w3.org/2000/svg">
<rect width="32" height="32" rx="16" fill="#F4F4F6"/>
<path d="M12.4077 10.4368C12.4077 10.721 12.3235 10.9987 12.1656 11.235C12.0077 11.4713 11.7833 11.6554 11.5208 11.7642C11.2583 11.8729 10.9694 11.9014 10.6907 11.846C10.412 11.7905 10.1559 11.6537 9.955 11.4527C9.75407 11.2518 9.61723 10.9958 9.56179 10.7171C9.50635 10.4384 9.5348 10.1495 9.64355 9.88695C9.7523 9.62441 9.93645 9.40002 10.1727 9.24214C10.409 9.08427 10.6868 9 10.971 9C11.352 9 11.7175 9.15137 11.9869 9.42082C12.2564 9.69027 12.4077 10.0557 12.4077 10.4368ZM10.971 13.3103C10.7169 13.3103 10.4733 13.4113 10.2937 13.5909C10.114 13.7705 10.0131 14.0142 10.0131 14.2682V21.931C10.0131 22.1851 10.114 22.4287 10.2937 22.6083C10.4733 22.788 10.7169 22.8889 10.971 22.8889C11.225 22.8889 11.4686 22.788 11.6483 22.6083C11.8279 22.4287 11.9288 22.1851 11.9288 21.931V14.2682C11.9288 14.0142 11.8279 13.7705 11.6483 13.5909C11.4686 13.4113 11.225 13.3103 10.971 13.3103ZM18.1549 13.3103C17.2926 13.3103 16.4501 13.5689 15.7363 14.0527C15.6839 13.8228 15.5486 13.6204 15.3563 13.4841C15.164 13.3477 14.9282 13.2871 14.694 13.3138C14.4597 13.3405 14.2436 13.4526 14.0869 13.6287C13.9301 13.8048 13.8439 14.0325 13.8445 14.2682V21.931C13.8445 22.1851 13.9454 22.4287 14.1251 22.6083C14.3047 22.788 14.5483 22.8889 14.8024 22.8889C15.0564 22.8889 15.3001 22.788 15.4797 22.6083C15.6593 22.4287 15.7602 22.1851 15.7602 21.931V17.6207C15.7602 16.9856 16.0125 16.3765 16.4616 15.9274C16.9107 15.4783 17.5198 15.2261 18.1549 15.2261C18.79 15.2261 19.3991 15.4783 19.8481 15.9274C20.2972 16.3765 20.5495 16.9856 20.5495 17.6207V21.931C20.5495 22.1851 20.6504 22.4287 20.8301 22.6083C21.0097 22.788 21.2533 22.8889 21.5074 22.8889C21.7614 22.8889 22.005 22.788 22.1847 22.6083C22.3643 22.4287 22.4652 22.1851 22.4652 21.931V17.6207C22.4652 16.4775 22.0111 15.3812 21.2027 14.5728C20.3944 13.7645 19.298 13.3103 18.1549 13.3103Z" fill="#282727"/>
</svg>
