<svg width="20" height="20" viewBox="0 0 20 20" fill="none" xmlns="http://www.w3.org/2000/svg">
<path fill-rule="evenodd" clip-rule="evenodd" d="M10 1.25C5.17201 1.25 1.25 5.17201 1.25 10C1.25 14.828 5.17201 18.75 10 18.75C14.828 18.75 18.75 14.828 18.75 10C18.75 5.17201 14.828 1.25 10 1.25ZM10 2.01088C14.4168 2.01088 17.9891 5.58322 17.9891 10C17.9891 14.4168 14.4168 17.9891 10 17.9891C9.19209 17.9891 8.41271 17.8682 7.67801 17.6458C8.00527 17.0987 8.42781 16.3166 8.59566 15.6708C8.69539 15.288 9.10539 13.7263 9.10539 13.7263C9.37184 14.235 10.1504 14.6655 10.9793 14.6655C13.446 14.6655 15.2243 12.397 15.2243 9.57795C15.2243 6.87531 13.0189 4.85373 10.1813 4.85373C6.65098 4.85373 4.77721 7.22314 4.77721 9.80309C4.77721 11.0029 5.41535 12.4965 6.43715 12.9721C6.59191 13.0442 6.67504 13.013 6.71059 12.8629C6.73793 12.749 6.87598 12.1939 6.93793 11.9356C6.95777 11.8532 6.94816 11.782 6.88148 11.7008C6.54328 11.2906 6.27219 10.5371 6.27219 9.8343C6.27219 8.03012 7.63805 6.28408 9.96508 6.28408C11.9744 6.28408 13.3816 7.65381 13.3816 9.61213C13.3816 11.8246 12.2644 13.3578 10.8107 13.3578C10.0078 13.3578 9.40666 12.6936 9.59951 11.8791C9.83072 10.9071 10.2771 9.85809 10.2771 9.1559C10.2771 8.52799 9.94018 8.0042 9.24211 8.0042C8.42133 8.0042 7.76197 8.85277 7.76197 9.99033C7.76197 10.7142 8.00717 11.2045 8.00717 11.2045C8.00717 11.2045 7.19641 14.6324 7.04791 15.2704C6.8991 15.9079 6.93896 16.7665 7.00035 17.4058C4.07326 16.2211 2.01088 13.3552 2.01088 10C2.01088 5.5832 5.5832 2.01088 10 2.01088Z" fill="white"/>
</svg>
