<svg width="16" height="16" viewBox="0 0 16 16" fill="none" xmlns="http://www.w3.org/2000/svg">
<path d="M4.40774 2.43678C4.40774 2.72095 4.32348 2.99874 4.1656 3.23501C4.00773 3.47129 3.78333 3.65545 3.52079 3.76419C3.25826 3.87294 2.96937 3.90139 2.69066 3.84596C2.41195 3.79052 2.15594 3.65368 1.955 3.45274C1.75407 3.2518 1.61723 2.99579 1.56179 2.71708C1.50635 2.43838 1.5348 2.14949 1.64355 1.88695C1.7523 1.62441 1.93645 1.40002 2.17273 1.24214C2.40901 1.08427 2.68679 1 2.97096 1C3.35202 1 3.71747 1.15137 3.98692 1.42082C4.25637 1.69027 4.40774 2.05572 4.40774 2.43678ZM2.97096 5.31034C2.71692 5.31034 2.47329 5.41126 2.29366 5.59089C2.11402 5.77053 2.01311 6.01416 2.01311 6.2682V13.931C2.01311 14.1851 2.11402 14.4287 2.29366 14.6083C2.47329 14.788 2.71692 14.8889 2.97096 14.8889C3.225 14.8889 3.46863 14.788 3.64827 14.6083C3.8279 14.4287 3.92882 14.1851 3.92882 13.931V6.2682C3.92882 6.01416 3.8279 5.77053 3.64827 5.59089C3.46863 5.41126 3.225 5.31034 2.97096 5.31034ZM10.1549 5.31034C9.29257 5.3103 8.45008 5.56888 7.73629 6.05268C7.68391 5.82284 7.54862 5.62039 7.35631 5.48407C7.164 5.34774 6.92817 5.28712 6.69396 5.31381C6.45974 5.34049 6.24359 5.4526 6.08687 5.62869C5.93015 5.80478 5.84386 6.03247 5.84453 6.2682V13.931C5.84453 14.1851 5.94544 14.4287 6.12507 14.6083C6.30471 14.788 6.54834 14.8889 6.80238 14.8889C7.05642 14.8889 7.30005 14.788 7.47968 14.6083C7.65932 14.4287 7.76023 14.1851 7.76023 13.931V9.62069C7.76023 8.98559 8.01253 8.37651 8.46161 7.92743C8.91069 7.47834 9.51977 7.22605 10.1549 7.22605C10.79 7.22605 11.3991 7.47834 11.8481 7.92743C12.2972 8.37651 12.5495 8.98559 12.5495 9.62069V13.931C12.5495 14.1851 12.6504 14.4287 12.8301 14.6083C13.0097 14.788 13.2533 14.8889 13.5074 14.8889C13.7614 14.8889 14.005 14.788 14.1847 14.6083C14.3643 14.4287 14.4652 14.1851 14.4652 13.931V9.62069C14.4652 8.47751 14.0111 7.38116 13.2027 6.57282C12.3944 5.76447 11.298 5.31034 10.1549 5.31034Z" fill="white"/>
</svg>
