<svg width="16" height="16" viewBox="0 0 16 16" fill="none" xmlns="http://www.w3.org/2000/svg">
<path d="M5.19967 1.33398H10.7997C12.933 1.33398 14.6663 3.06732 14.6663 5.20065V10.8007C14.6663 11.8262 14.259 12.8097 13.5338 13.5348C12.8087 14.2599 11.8252 14.6673 10.7997 14.6673H5.19967C3.06634 14.6673 1.33301 12.934 1.33301 10.8007V5.20065C1.33301 4.17515 1.74039 3.19165 2.46553 2.4665C3.19067 1.74136 4.17417 1.33398 5.19967 1.33398ZM5.06634 2.66732C4.42982 2.66732 3.81937 2.92017 3.36928 3.37026C2.9192 3.82035 2.66634 4.4308 2.66634 5.06732V10.934C2.66634 12.2606 3.73967 13.334 5.06634 13.334H10.933C11.5695 13.334 12.18 13.0811 12.6301 12.631C13.0802 12.181 13.333 11.5705 13.333 10.934V5.06732C13.333 3.74065 12.2597 2.66732 10.933 2.66732H5.06634ZM11.4997 3.66732C11.7207 3.66732 11.9326 3.75512 12.0889 3.9114C12.2452 4.06768 12.333 4.27964 12.333 4.50065C12.333 4.72166 12.2452 4.93363 12.0889 5.08991C11.9326 5.24619 11.7207 5.33398 11.4997 5.33398C11.2787 5.33398 11.0667 5.24619 10.9104 5.08991C10.7541 4.93363 10.6663 4.72166 10.6663 4.50065C10.6663 4.27964 10.7541 4.06768 10.9104 3.9114C11.0667 3.75512 11.2787 3.66732 11.4997 3.66732ZM7.99967 4.66732C8.88373 4.66732 9.73158 5.01851 10.3567 5.64363C10.9818 6.26875 11.333 7.1166 11.333 8.00065C11.333 8.88471 10.9818 9.73255 10.3567 10.3577C9.73158 10.9828 8.88373 11.334 7.99967 11.334C7.11562 11.334 6.26777 10.9828 5.64265 10.3577C5.01753 9.73255 4.66634 8.88471 4.66634 8.00065C4.66634 7.1166 5.01753 6.26875 5.64265 5.64363C6.26777 5.01851 7.11562 4.66732 7.99967 4.66732ZM7.99967 6.00065C7.46924 6.00065 6.96053 6.21136 6.58546 6.58644C6.21039 6.96151 5.99967 7.47022 5.99967 8.00065C5.99967 8.53108 6.21039 9.03979 6.58546 9.41486C6.96053 9.78994 7.46924 10.0007 7.99967 10.0007C8.53011 10.0007 9.03882 9.78994 9.41389 9.41486C9.78896 9.03979 9.99967 8.53108 9.99967 8.00065C9.99967 7.47022 9.78896 6.96151 9.41389 6.58644C9.03882 6.21136 8.53011 6.00065 7.99967 6.00065Z" fill="white"/>
</svg>
