<svg width="32" height="32" viewBox="0 0 32 32" fill="none" xmlns="http://www.w3.org/2000/svg">
<rect width="32" height="32" rx="16" fill="#F4F4F6"/>
<path d="M13.1997 9.33398H18.7997C20.933 9.33398 22.6663 11.0673 22.6663 13.2007V18.8007C22.6663 19.8262 22.259 20.8097 21.5338 21.5348C20.8087 22.2599 19.8252 22.6673 18.7997 22.6673H13.1997C11.0663 22.6673 9.33301 20.934 9.33301 18.8007V13.2007C9.33301 12.1751 9.74039 11.1916 10.4655 10.4665C11.1907 9.74136 12.1742 9.33398 13.1997 9.33398ZM13.0663 10.6673C12.4298 10.6673 11.8194 10.9202 11.3693 11.3703C10.9192 11.8203 10.6663 12.4308 10.6663 13.0673V18.934C10.6663 20.2606 11.7397 21.334 13.0663 21.334H18.933C19.5695 21.334 20.18 21.0811 20.6301 20.631C21.0802 20.181 21.333 19.5705 21.333 18.934V13.0673C21.333 11.7407 20.2597 10.6673 18.933 10.6673H13.0663ZM19.4997 11.6673C19.7207 11.6673 19.9326 11.7551 20.0889 11.9114C20.2452 12.0677 20.333 12.2796 20.333 12.5007C20.333 12.7217 20.2452 12.9336 20.0889 13.0899C19.9326 13.2462 19.7207 13.334 19.4997 13.334C19.2787 13.334 19.0667 13.2462 18.9104 13.0899C18.7541 12.9336 18.6663 12.7217 18.6663 12.5007C18.6663 12.2796 18.7541 12.0677 18.9104 11.9114C19.0667 11.7551 19.2787 11.6673 19.4997 11.6673ZM15.9997 12.6673C16.8837 12.6673 17.7316 13.0185 18.3567 13.6436C18.9818 14.2687 19.333 15.1166 19.333 16.0007C19.333 16.8847 18.9818 17.7326 18.3567 18.3577C17.7316 18.9828 16.8837 19.334 15.9997 19.334C15.1156 19.334 14.2678 18.9828 13.6427 18.3577C13.0175 17.7326 12.6663 16.8847 12.6663 16.0007C12.6663 15.1166 13.0175 14.2687 13.6427 13.6436C14.2678 13.0185 15.1156 12.6673 15.9997 12.6673ZM15.9997 14.0007C15.4692 14.0007 14.9605 14.2114 14.5855 14.5864C14.2104 14.9615 13.9997 15.4702 13.9997 16.0007C13.9997 16.5311 14.2104 17.0398 14.5855 17.4149C14.9605 17.7899 15.4692 18.0007 15.9997 18.0007C16.5301 18.0007 17.0388 17.7899 17.4139 17.4149C17.789 17.0398 17.9997 16.5311 17.9997 16.0007C17.9997 15.4702 17.789 14.9615 17.4139 14.5864C17.0388 14.2114 16.5301 14.0007 15.9997 14.0007Z" fill="#282727"/>
</svg>
