<svg width="20" height="22" viewBox="0 0 20 22" fill="none" xmlns="http://www.w3.org/2000/svg">
<path fill-rule="evenodd" clip-rule="evenodd" d="M8.50025 1.91687e-08C7.14485 0.000115492 5.80912 0.324364 4.60451 0.945694C3.3999 1.56702 2.36135 2.46742 1.57549 3.57175C0.789633 4.67609 0.279263 5.95235 0.0869618 7.29404C-0.10534 8.63574 0.0260029 10.004 0.470032 11.2846C0.914061 12.5652 1.6579 13.7211 2.63949 14.6557C3.62108 15.5904 4.81196 16.2768 6.11277 16.6576C7.41358 17.0384 8.7866 17.1026 10.1173 16.8449C11.448 16.5872 12.6977 16.015 13.7623 15.176L17.4143 18.828C17.6029 19.0102 17.8555 19.111 18.1177 19.1087C18.3799 19.1064 18.6307 19.0012 18.8161 18.8158C19.0015 18.6304 19.1066 18.3796 19.1089 18.1174C19.1112 17.8552 19.0104 17.6026 18.8283 17.414L15.1763 13.762C16.1642 12.5086 16.7794 11.0024 16.9514 9.41573C17.1233 7.82905 16.8451 6.22602 16.1485 4.79009C15.4519 3.35417 14.3651 2.14336 13.0126 1.29623C11.66 0.449106 10.0962 -0.000107143 8.50025 1.91687e-08ZM2.00025 8.5C2.00025 6.77609 2.68507 5.12279 3.90406 3.90381C5.12305 2.68482 6.77635 2 8.50025 2C10.2242 2 11.8775 2.68482 13.0964 3.90381C14.3154 5.12279 15.0003 6.77609 15.0003 8.5C15.0003 10.2239 14.3154 11.8772 13.0964 13.0962C11.8775 14.3152 10.2242 15 8.50025 15C6.77635 15 5.12305 14.3152 3.90406 13.0962C2.68507 11.8772 2.00025 10.2239 2.00025 8.5Z" fill="#ABA9A8"/>
</svg>
