<svg width="149" height="40" viewBox="0 0 149 40" fill="none" xmlns="http://www.w3.org/2000/svg">
<path fill-rule="evenodd" clip-rule="evenodd" d="M19.252 6.43657C19.252 4.47328 20.8435 2.88171 22.8068 2.88171H31.3863C33.3496 2.88171 34.9411 4.47328 34.9411 6.43657V15.016C34.9411 16.9793 33.3496 18.5709 31.3863 18.5709H22.8068C20.8435 18.5709 19.252 16.9793 19.252 15.016V6.43657ZM22.8068 5.73429C22.419 5.73429 22.1045 6.04871 22.1045 6.43657V15.016C22.1045 15.4039 22.419 15.7183 22.8068 15.7183H31.3863C31.7741 15.7183 32.0885 15.4039 32.0885 15.016V6.43657C32.0885 6.04871 31.7741 5.73429 31.3863 5.73429H22.8068Z" fill="#1E3839"/><path fill-rule="evenodd" clip-rule="evenodd" d="M0.709961 6.43657C0.709961 4.47328 2.30153 2.88171 4.26482 2.88171H14.9728V5.73429H4.26482C3.87696 5.73429 3.56254 6.04871 3.56254 6.43657V15.016C3.56254 15.4039 3.87696 15.7183 4.26482 15.7183H14.9728V18.5709H4.26482C2.30152 18.5709 0.709961 16.9793 0.709961 15.016V6.43657Z" fill="#1E3839"/><path fill-rule="evenodd" clip-rule="evenodd" d="M19.252 24.9839C19.252 23.0206 20.8435 21.4291 22.8068 21.4291H31.3863C33.3496 21.4291 34.9411 23.0206 34.9411 24.9839V33.5634C34.9411 35.5267 33.3496 37.1182 31.3863 37.1182H22.8068C20.8435 37.1182 19.252 35.5267 19.252 33.5634V24.9839ZM22.8068 24.2817C22.419 24.2817 22.1045 24.5961 22.1045 24.9839V33.5634C22.1045 33.9512 22.419 34.2657 22.8068 34.2657H31.3863C31.7741 34.2657 32.0885 33.9512 32.0885 33.5634V24.9839C32.0885 24.5961 31.7741 24.2817 31.3863 24.2817H22.8068Z" fill="#1E3839"/><path fill-rule="evenodd" clip-rule="evenodd" d="M0.709961 24.9839C0.709961 23.0206 2.30153 21.4291 4.26482 21.4291H14.9728V24.2817H4.26482C3.87696 24.2817 3.56254 24.5961 3.56254 24.9839V33.5634C3.56254 33.9512 3.87696 34.2657 4.26482 34.2657H14.9728V37.1182H4.26482C2.30152 37.1182 0.709961 35.5267 0.709961 33.5634V24.9839Z" fill="#1E3839"/><path d="M43.4551 2.97144V37.0286" stroke="#1E3839" stroke-width="2.12857"/><path d="M57.8443 16.2352C56.7147 16.2352 55.7472 15.9894 54.9418 15.4978C54.1365 15.001 53.5167 14.3107 53.0827 13.4269C52.6538 12.543 52.4394 11.518 52.4394 10.3518C52.4394 9.18555 52.6538 8.16052 53.0827 7.2767C53.5167 6.39288 54.1365 5.70517 54.9418 5.21358C55.7472 4.71675 56.7147 4.46834 57.8443 4.46834C59.1465 4.46834 60.2317 4.7952 61.0998 5.44891C61.968 6.0974 62.5772 6.97338 62.9276 8.07685L61.0214 8.60244C60.8018 7.86504 60.4278 7.28978 59.8996 6.87663C59.3714 6.45825 58.6863 6.24906 57.8443 6.24906C57.086 6.24906 56.4532 6.41903 55.946 6.75896C55.4439 7.09889 55.0647 7.57741 54.8085 8.19452C54.5575 8.8064 54.4293 9.52548 54.4241 10.3518C54.4241 11.1781 54.5496 11.8998 54.8006 12.5169C55.0569 13.1288 55.4387 13.6047 55.946 13.9446C56.4532 14.2845 57.086 14.4545 57.8443 14.4545C58.6863 14.4545 59.3714 14.2453 59.8996 13.8269C60.4278 13.4086 60.8018 12.8333 61.0214 12.1011L62.9276 12.6267C62.5772 13.7302 61.968 14.6088 61.0998 15.2625C60.2317 15.911 59.1465 16.2352 57.8443 16.2352ZM68.3919 16.2352C67.5447 16.2352 66.8047 16.0443 66.1719 15.6626C65.5391 15.2808 65.0475 14.7552 64.6971 14.0858C64.3519 13.4112 64.1793 12.6372 64.1793 11.7638C64.1793 10.8748 64.3571 10.0955 64.7128 9.42612C65.0684 8.75671 65.5626 8.23374 66.1954 7.8572C66.8282 7.48066 67.5603 7.29239 68.3919 7.29239C69.2443 7.29239 69.9869 7.48328 70.6197 7.86504C71.2525 8.24681 71.7441 8.77502 72.0945 9.44965C72.4449 10.1191 72.6201 10.8904 72.6201 11.7638C72.6201 12.6424 72.4423 13.419 72.0867 14.0936C71.7363 14.763 71.2447 15.2886 70.6119 15.6704C69.9791 16.0469 69.2391 16.2352 68.3919 16.2352ZM68.3919 14.4623C69.145 14.4623 69.7045 14.2113 70.0706 13.7093C70.4367 13.2072 70.6197 12.5587 70.6197 11.7638C70.6197 10.9427 70.4341 10.289 70.0628 9.80266C69.6915 9.31106 69.1345 9.06527 68.3919 9.06527C67.8846 9.06527 67.4662 9.18032 67.1367 9.41043C66.8125 9.63531 66.5719 9.9517 66.415 10.3596C66.2581 10.7623 66.1797 11.2304 66.1797 11.7638C66.1797 12.5849 66.3654 13.2412 66.7367 13.7328C67.1132 14.2192 67.6649 14.4623 68.3919 14.4623ZM77.5255 16.2431C76.898 16.2431 76.3802 16.1385 75.9723 15.9293C75.5644 15.7201 75.2402 15.4534 74.9996 15.1291C74.759 14.8049 74.5812 14.4597 74.4662 14.0936C74.3511 13.7276 74.2753 13.3824 74.2387 13.0582C74.2073 12.7287 74.1916 12.462 74.1916 12.258V7.52773H76.1057V11.6069C76.1057 11.8684 76.124 12.1639 76.1606 12.4933C76.1972 12.8176 76.2809 13.1314 76.4116 13.4347C76.5476 13.7328 76.7463 13.9786 77.0078 14.1721C77.2745 14.3656 77.6328 14.4623 78.0825 14.4623C78.3231 14.4623 78.561 14.4231 78.7964 14.3447C79.0317 14.2662 79.2435 14.1329 79.4318 13.9446C79.6253 13.7511 79.7796 13.487 79.8946 13.1523C80.0097 12.8176 80.0672 12.394 80.0672 11.8815L81.189 12.36C81.189 13.0817 81.0478 13.7354 80.7654 14.3211C80.4882 14.9069 80.0776 15.3749 79.5338 15.7253C78.9899 16.0705 78.3205 16.2431 77.5255 16.2431ZM80.2947 15.9999V13.3719H80.0672V7.52773H81.9656V15.9999H80.2947ZM90.0294 15.9999V11.9207C90.0294 11.654 90.0111 11.3585 89.9745 11.0343C89.9379 10.71 89.8516 10.3988 89.7157 10.1008C89.5849 9.79743 89.3862 9.54902 89.1195 9.35552C88.858 9.16202 88.5024 9.06527 88.0526 9.06527C87.812 9.06527 87.5741 9.10449 87.3388 9.18294C87.1034 9.26138 86.889 9.39735 86.6955 9.59085C86.5072 9.77912 86.3556 10.0406 86.2405 10.3753C86.1255 10.7048 86.0679 11.1284 86.0679 11.6461L84.9462 11.1676C84.9462 10.4459 85.0847 9.7922 85.3619 9.20647C85.6443 8.62074 86.0575 8.15529 86.6014 7.81013C87.1453 7.45974 87.8147 7.28455 88.6096 7.28455C89.2371 7.28455 89.7549 7.38914 90.1628 7.59833C90.5707 7.80752 90.895 8.07423 91.1355 8.39848C91.3761 8.72272 91.5539 9.06788 91.669 9.43396C91.784 9.80004 91.8572 10.1478 91.8886 10.4773C91.9252 10.8015 91.9435 11.0656 91.9435 11.2696V15.9999H90.0294ZM84.1538 15.9999V7.52773H85.8404V10.1557H86.0679V15.9999H84.1538ZM98.9562 15.9999C98.3966 16.1045 97.8475 16.1489 97.3088 16.1332C96.7754 16.1228 96.2969 16.026 95.8733 15.843C95.4497 15.6547 95.1281 15.3592 94.9084 14.9565C94.7149 14.5905 94.6129 14.2165 94.6025 13.8348C94.592 13.453 94.5868 13.0216 94.5868 12.5404V5.17435H96.4695V12.4306C96.4695 12.7705 96.4721 13.0686 96.4773 13.3249C96.4878 13.5811 96.5427 13.7903 96.6421 13.9524C96.8303 14.2662 97.131 14.4414 97.5442 14.478C97.9573 14.5146 98.428 14.4937 98.9562 14.4153V15.9999ZM93.0492 9.01035V7.52773H98.9562V9.01035H93.0492ZM104.201 16.2352C103.343 16.2352 102.59 16.0496 101.941 15.6783C101.293 15.3069 100.786 14.7918 100.42 14.1329C100.059 13.4739 99.8783 12.7156 99.8783 11.8579C99.8783 10.9323 100.056 10.1295 100.412 9.44965C100.767 8.76456 101.262 8.23374 101.894 7.8572C102.527 7.48066 103.259 7.29239 104.091 7.29239C104.969 7.29239 105.715 7.49896 106.327 7.91211C106.944 8.32003 107.401 8.89791 107.699 9.64577C107.997 10.3936 108.11 11.2748 108.037 12.2894H106.162V11.5991C106.157 10.6786 105.994 10.0066 105.675 9.58301C105.356 9.1594 104.854 8.9476 104.169 8.9476C103.395 8.9476 102.82 9.18816 102.443 9.6693C102.067 10.1452 101.879 10.8434 101.879 11.7638C101.879 12.6215 102.067 13.2857 102.443 13.7563C102.82 14.227 103.369 14.4623 104.091 14.4623C104.556 14.4623 104.956 14.3604 105.291 14.1564C105.631 13.9472 105.892 13.6465 106.076 13.2543L107.943 13.8191C107.618 14.5826 107.116 15.1762 106.436 15.5998C105.762 16.0234 105.017 16.2352 104.201 16.2352ZM101.282 12.2894V10.8617H107.111V12.2894H101.282ZM109.787 15.9999V7.52773H111.458V9.59085L111.254 9.32414C111.359 9.04173 111.497 8.78548 111.67 8.55537C111.848 8.32003 112.059 8.12653 112.305 7.97487C112.514 7.83367 112.744 7.72384 112.995 7.6454C113.252 7.56172 113.513 7.51204 113.78 7.49635C114.047 7.47543 114.305 7.48589 114.557 7.52773V9.29276C114.305 9.21954 114.015 9.19601 113.686 9.22216C113.362 9.24831 113.069 9.33983 112.807 9.49672C112.546 9.63792 112.331 9.81835 112.164 10.038C112.002 10.2576 111.882 10.5087 111.803 10.7911C111.725 11.0682 111.685 11.369 111.685 11.6932V15.9999H109.787ZM121.019 15.9999C120.46 16.1045 119.91 16.1489 119.372 16.1332C118.838 16.1228 118.36 16.026 117.936 15.843C117.513 15.6547 117.191 15.3592 116.971 14.9565C116.778 14.5905 116.676 14.2165 116.665 13.8348C116.655 13.453 116.65 13.0216 116.65 12.5404V5.17435H118.532V12.4306C118.532 12.7705 118.535 13.0686 118.54 13.3249C118.551 13.5811 118.606 13.7903 118.705 13.9524C118.893 14.2662 119.194 14.4414 119.607 14.478C120.02 14.5146 120.491 14.4937 121.019 14.4153V15.9999ZM115.112 9.01035V7.52773H121.019V9.01035H115.112ZM126.154 16.2352C125.307 16.2352 124.567 16.0443 123.934 15.6626C123.301 15.2808 122.809 14.7552 122.459 14.0858C122.114 13.4112 121.941 12.6372 121.941 11.7638C121.941 10.8748 122.119 10.0955 122.475 9.42612C122.83 8.75671 123.324 8.23374 123.957 7.8572C124.59 7.48066 125.322 7.29239 126.154 7.29239C127.006 7.29239 127.749 7.48328 128.382 7.86504C129.014 8.24681 129.506 8.77502 129.856 9.44965C130.207 10.1191 130.382 10.8904 130.382 11.7638C130.382 12.6424 130.204 13.419 129.849 14.0936C129.498 14.763 129.007 15.2886 128.374 15.6704C127.741 16.0469 127.001 16.2352 126.154 16.2352ZM126.154 14.4623C126.907 14.4623 127.466 14.2113 127.832 13.7093C128.199 13.2072 128.382 12.5587 128.382 11.7638C128.382 10.9427 128.196 10.289 127.825 9.80266C127.453 9.31106 126.896 9.06527 126.154 9.06527C125.646 9.06527 125.228 9.18032 124.899 9.41043C124.574 9.63531 124.334 9.9517 124.177 10.3596C124.02 10.7623 123.942 11.2304 123.942 11.7638C123.942 12.5849 124.127 13.2412 124.499 13.7328C124.875 14.2192 125.427 14.4623 126.154 14.4623ZM136.182 16.2352C135.355 16.2352 134.662 16.0391 134.103 15.6469C133.543 15.2546 133.122 14.7212 132.84 14.0466C132.557 13.3667 132.416 12.6058 132.416 11.7638C132.416 10.9114 132.557 10.1478 132.84 9.47318C133.122 8.79855 133.535 8.26773 134.079 7.88073C134.628 7.48851 135.306 7.29239 136.111 7.29239C136.911 7.29239 137.604 7.48851 138.19 7.88073C138.781 8.26773 139.238 8.79855 139.563 9.47318C139.887 10.1426 140.049 10.9061 140.049 11.7638C140.049 12.611 139.89 13.3719 139.571 14.0466C139.252 14.7212 138.802 15.2546 138.221 15.6469C137.641 16.0391 136.961 16.2352 136.182 16.2352ZM132.095 19.7653V7.52773H133.766V13.4739H134.001V19.7653H132.095ZM135.891 14.5408C136.383 14.5408 136.788 14.4179 137.107 14.1721C137.426 13.9263 137.662 13.5942 137.813 13.1758C137.97 12.7522 138.049 12.2815 138.049 11.7638C138.049 11.2513 137.97 10.7858 137.813 10.3675C137.656 9.94386 137.413 9.60916 137.084 9.36336C136.754 9.11233 136.336 8.98682 135.829 8.98682C135.348 8.98682 134.955 9.10449 134.652 9.33983C134.349 9.56993 134.124 9.89418 133.977 10.3126C133.836 10.7257 133.766 11.2095 133.766 11.7638C133.766 12.3129 133.836 12.7967 133.977 13.2151C134.124 13.6334 134.351 13.9603 134.66 14.1956C134.974 14.4257 135.384 14.5408 135.891 14.5408ZM144.85 16.2352C143.804 16.2352 142.954 15.9999 142.301 15.5292C141.647 15.0585 141.25 14.397 141.108 13.5445L143.038 13.2464C143.137 13.6648 143.357 13.9943 143.697 14.2348C144.037 14.4754 144.466 14.5957 144.984 14.5957C145.439 14.5957 145.789 14.5068 146.035 14.329C146.286 14.1459 146.411 13.8975 146.411 13.5837C146.411 13.3902 146.364 13.236 146.27 13.1209C146.181 13.0006 145.982 12.8856 145.674 12.7758C145.365 12.6659 144.892 12.5273 144.254 12.36C143.543 12.1717 142.978 11.9704 142.56 11.756C142.141 11.5363 141.841 11.2774 141.657 10.9793C141.474 10.6813 141.383 10.3204 141.383 9.89679C141.383 9.36859 141.521 8.90837 141.799 8.51615C142.076 8.12392 142.463 7.82321 142.96 7.61402C143.456 7.3996 144.042 7.29239 144.717 7.29239C145.376 7.29239 145.959 7.39437 146.466 7.59833C146.979 7.80229 147.392 8.09254 147.706 8.46908C148.019 8.84562 148.213 9.28753 148.286 9.79481L146.356 10.14C146.309 9.77912 146.145 9.4941 145.862 9.28491C145.585 9.07573 145.214 8.95806 144.748 8.93191C144.304 8.90576 143.945 8.97375 143.674 9.13587C143.402 9.29276 143.266 9.51502 143.266 9.80266C143.266 9.96478 143.321 10.1034 143.43 10.2184C143.54 10.3335 143.76 10.4485 144.089 10.5636C144.424 10.6786 144.921 10.8198 145.58 10.9872C146.254 11.1598 146.793 11.3585 147.196 11.5834C147.604 11.803 147.897 12.0671 148.074 12.3757C148.257 12.6842 148.349 13.0582 148.349 13.4975C148.349 14.3499 148.038 15.0193 147.415 15.5057C146.798 15.992 145.943 16.2352 144.85 16.2352ZM57.8443 36.2352C56.7147 36.2352 55.7472 35.9894 54.9418 35.4978C54.1365 35.001 53.5167 34.3107 53.0827 33.4269C52.6538 32.543 52.4394 31.518 52.4394 30.3518C52.4394 29.1855 52.6538 28.1605 53.0827 27.2767C53.5167 26.3929 54.1365 25.7052 54.9418 25.2136C55.7472 24.7168 56.7147 24.4683 57.8443 24.4683C59.1465 24.4683 60.2317 24.7952 61.0998 25.4489C61.968 26.0974 62.5772 26.9734 62.9276 28.0768L61.0214 28.6024C60.8018 27.865 60.4278 27.2898 59.8996 26.8766C59.3714 26.4582 58.6863 26.2491 57.8443 26.2491C57.086 26.2491 56.4532 26.419 55.946 26.759C55.4439 27.0989 55.0647 27.5774 54.8085 28.1945C54.5575 28.8064 54.4293 29.5255 54.4241 30.3518C54.4241 31.1781 54.5496 31.8998 54.8006 32.5169C55.0569 33.1288 55.4387 33.6047 55.946 33.9446C56.4532 34.2845 57.086 34.4545 57.8443 34.4545C58.6863 34.4545 59.3714 34.2453 59.8996 33.8269C60.4278 33.4086 60.8018 32.8333 61.0214 32.1011L62.9276 32.6267C62.5772 33.7302 61.968 34.6088 61.0998 35.2625C60.2317 35.911 59.1465 36.2352 57.8443 36.2352ZM68.3919 36.2352C67.5447 36.2352 66.8047 36.0443 66.1719 35.6626C65.5391 35.2808 65.0475 34.7552 64.6971 34.0858C64.3519 33.4112 64.1793 32.6372 64.1793 31.7638C64.1793 30.8748 64.3571 30.0955 64.7128 29.4261C65.0684 28.7567 65.5626 28.2337 66.1954 27.8572C66.8282 27.4807 67.5603 27.2924 68.3919 27.2924C69.2443 27.2924 69.9869 27.4833 70.6197 27.865C71.2525 28.2468 71.7441 28.775 72.0945 29.4497C72.4449 30.1191 72.6201 30.8904 72.6201 31.7638C72.6201 32.6424 72.4423 33.419 72.0867 34.0936C71.7363 34.763 71.2447 35.2886 70.6119 35.6704C69.9791 36.0469 69.2391 36.2352 68.3919 36.2352ZM68.3919 34.4623C69.145 34.4623 69.7045 34.2113 70.0706 33.7093C70.4367 33.2072 70.6197 32.5587 70.6197 31.7638C70.6197 30.9427 70.4341 30.289 70.0628 29.8027C69.6915 29.3111 69.1345 29.0653 68.3919 29.0653C67.8846 29.0653 67.4662 29.1803 67.1367 29.4104C66.8125 29.6353 66.5719 29.9517 66.415 30.3596C66.2581 30.7623 66.1797 31.2304 66.1797 31.7638C66.1797 32.5849 66.3654 33.2412 66.7367 33.7328C67.1132 34.2192 67.6649 34.4623 68.3919 34.4623ZM80.2084 35.9999V31.9207C80.2084 31.654 80.1901 31.3585 80.1535 31.0343C80.1169 30.71 80.0306 30.3988 79.8946 30.1008C79.7639 29.7974 79.5651 29.549 79.2984 29.3555C79.0369 29.162 78.6813 29.0653 78.2316 29.0653C77.991 29.0653 77.753 29.1045 77.5177 29.1829C77.2824 29.2614 77.0679 29.3974 76.8744 29.5909C76.6862 29.7791 76.5345 30.0406 76.4195 30.3753C76.3044 30.7048 76.2469 31.1284 76.2469 31.6461L75.1251 31.1676C75.1251 30.4459 75.2637 29.7922 75.5409 29.2065C75.8233 28.6207 76.2364 28.1553 76.7803 27.8101C77.3242 27.4597 77.9936 27.2845 78.7885 27.2845C79.4161 27.2845 79.9338 27.3891 80.3417 27.5983C80.7497 27.8075 81.0739 28.0742 81.3145 28.3985C81.555 28.7227 81.7329 29.0679 81.8479 29.434C81.963 29.8 82.0362 30.1478 82.0676 30.4773C82.1042 30.8015 82.1225 31.0656 82.1225 31.2696V35.9999H80.2084ZM74.3328 35.9999V27.5277H76.0194V30.1557H76.2469V35.9999H74.3328ZM89.1352 35.9999C88.5756 36.1045 88.0265 36.1489 87.4878 36.1332C86.9544 36.1228 86.4758 36.026 86.0522 35.843C85.6286 35.6547 85.307 35.3592 85.0874 34.9565C84.8939 34.5905 84.7919 34.2165 84.7814 33.8348C84.771 33.453 84.7657 33.0216 84.7657 32.5404V25.1744H86.6484V32.4306C86.6484 32.7705 86.651 33.0686 86.6563 33.3249C86.6667 33.5811 86.7216 33.7903 86.821 33.9524C87.0093 34.2662 87.31 34.4414 87.7231 34.478C88.1363 34.5146 88.607 34.4937 89.1352 34.4153V35.9999ZM83.2282 29.0104V27.5277H89.1352V29.0104H83.2282ZM90.9569 35.9999V27.5277H92.6278V29.5909L92.4239 29.3241C92.5285 29.0417 92.6671 28.7855 92.8396 28.5554C93.0175 28.32 93.2293 28.1265 93.4751 27.9749C93.6842 27.8337 93.9143 27.7238 94.1654 27.6454C94.4216 27.5617 94.6831 27.512 94.9498 27.4963C95.2166 27.4754 95.4754 27.4859 95.7264 27.5277V29.2928C95.4754 29.2195 95.1852 29.196 94.8557 29.2222C94.5315 29.2483 94.2386 29.3398 93.9771 29.4967C93.7156 29.6379 93.5012 29.8183 93.3339 30.038C93.1717 30.2576 93.0514 30.5087 92.973 30.7911C92.8946 31.0682 92.8553 31.369 92.8553 31.6932V35.9999H90.9569ZM99.3933 36.2352C98.7814 36.2352 98.2637 36.1202 97.8401 35.8901C97.4165 35.6547 97.0948 35.3435 96.8752 34.9565C96.6608 34.5695 96.5536 34.1433 96.5536 33.6779C96.5536 33.27 96.6215 32.9039 96.7575 32.5796C96.8935 32.2502 97.1027 31.9678 97.3851 31.7324C97.6675 31.4919 98.0336 31.2957 98.4833 31.1441C98.8233 31.0343 99.2207 30.9349 99.6757 30.846C100.136 30.7571 100.633 30.676 101.166 30.6028C101.705 30.5244 102.267 30.4407 102.853 30.3518L102.178 30.7362C102.183 30.1504 102.053 29.719 101.786 29.4418C101.519 29.1646 101.069 29.026 100.437 29.026C100.055 29.026 99.6862 29.1149 99.3305 29.2928C98.9749 29.4706 98.7265 29.7765 98.5853 30.2106L96.8595 29.6693C97.0687 28.9528 97.4661 28.3776 98.0519 27.9435C98.6428 27.5094 99.4378 27.2924 100.437 27.2924C101.19 27.2924 101.851 27.4153 102.421 27.6611C102.997 27.9069 103.423 28.3096 103.7 28.8692C103.852 29.1672 103.943 29.4732 103.975 29.787C104.006 30.0955 104.022 30.4328 104.022 30.7989V35.9999H102.366V34.1642L102.641 34.4623C102.259 35.0742 101.812 35.524 101.3 35.8116C100.792 36.094 100.157 36.2352 99.3933 36.2352ZM99.7698 34.7291C100.199 34.7291 100.565 34.6532 100.868 34.5016C101.171 34.3499 101.412 34.1642 101.59 33.9446C101.773 33.7249 101.896 33.5184 101.958 33.3249C102.058 33.0843 102.113 32.8097 102.123 32.5012C102.139 32.1874 102.147 31.9338 102.147 31.7403L102.727 31.9128C102.157 32.0018 101.668 32.0802 101.26 32.1482C100.852 32.2162 100.502 32.2815 100.209 32.3443C99.9163 32.4018 99.6574 32.4672 99.4325 32.5404C99.2129 32.6189 99.0272 32.7104 98.8756 32.815C98.7239 32.9196 98.6062 33.0399 98.5226 33.1758C98.4441 33.3118 98.4049 33.4713 98.4049 33.6543C98.4049 33.8635 98.4572 34.0492 98.5618 34.2113C98.6664 34.3682 98.818 34.4937 99.0168 34.5879C99.2207 34.682 99.4717 34.7291 99.7698 34.7291ZM109.743 36.2352C108.87 36.2352 108.124 36.0417 107.507 35.6547C106.89 35.2625 106.417 34.7291 106.087 34.0544C105.763 33.3798 105.598 32.6162 105.593 31.7638C105.598 30.8957 105.768 30.1269 106.103 29.4575C106.443 28.7829 106.924 28.2547 107.547 27.8729C108.169 27.4859 108.909 27.2924 109.767 27.2924C110.729 27.2924 111.542 27.5356 112.206 28.0219C112.876 28.5031 113.312 29.162 113.516 29.9988L111.634 30.5087C111.487 30.0537 111.244 29.7007 110.904 29.4497C110.564 29.1934 110.177 29.0653 109.743 29.0653C109.251 29.0653 108.846 29.1829 108.527 29.4183C108.208 29.6484 107.973 29.9674 107.821 30.3753C107.669 30.7832 107.594 31.2461 107.594 31.7638C107.594 32.5692 107.774 33.2203 108.135 33.7171C108.496 34.2139 109.032 34.4623 109.743 34.4623C110.245 34.4623 110.64 34.3473 110.928 34.1172C111.22 33.8871 111.44 33.555 111.586 33.1209L113.516 33.5524C113.255 34.4153 112.797 35.0794 112.143 35.5449C111.49 36.0051 110.69 36.2352 109.743 36.2352ZM120.054 35.9999C119.494 36.1045 118.945 36.1489 118.406 36.1332C117.873 36.1228 117.395 36.026 116.971 35.843C116.547 35.6547 116.226 35.3592 116.006 34.9565C115.813 34.5905 115.711 34.2165 115.7 33.8348C115.69 33.453 115.684 33.0216 115.684 32.5404V25.1744H117.567V32.4306C117.567 32.7705 117.57 33.0686 117.575 33.3249C117.585 33.5811 117.64 33.7903 117.74 33.9524C117.928 34.2662 118.229 34.4414 118.642 34.478C119.055 34.5146 119.526 34.4937 120.054 34.4153V35.9999ZM114.147 29.0104V27.5277H120.054V29.0104H114.147ZM125.188 36.2352C124.341 36.2352 123.601 36.0443 122.968 35.6626C122.336 35.2808 121.844 34.7552 121.494 34.0858C121.149 33.4112 120.976 32.6372 120.976 31.7638C120.976 30.8748 121.154 30.0955 121.509 29.4261C121.865 28.7567 122.359 28.2337 122.992 27.8572C123.625 27.4807 124.357 27.2924 125.188 27.2924C126.041 27.2924 126.784 27.4833 127.416 27.865C128.049 28.2468 128.541 28.775 128.891 29.4497C129.242 30.1191 129.417 30.8904 129.417 31.7638C129.417 32.6424 129.239 33.419 128.883 34.0936C128.533 34.763 128.041 35.2886 127.409 35.6704C126.776 36.0469 126.036 36.2352 125.188 36.2352ZM125.188 34.4623C125.942 34.4623 126.501 34.2113 126.867 33.7093C127.233 33.2072 127.416 32.5587 127.416 31.7638C127.416 30.9427 127.231 30.289 126.859 29.8027C126.488 29.3111 125.931 29.0653 125.188 29.0653C124.681 29.0653 124.263 29.1803 123.933 29.4104C123.609 29.6353 123.369 29.9517 123.212 30.3596C123.055 30.7623 122.976 31.2304 122.976 31.7638C122.976 32.5849 123.162 33.2412 123.533 33.7328C123.91 34.2192 124.462 34.4623 125.188 34.4623ZM131.145 35.9999V27.5277H132.816V29.5909L132.612 29.3241C132.717 29.0417 132.855 28.7855 133.028 28.5554C133.206 28.32 133.417 28.1265 133.663 27.9749C133.872 27.8337 134.103 27.7238 134.354 27.6454C134.61 27.5617 134.871 27.512 135.138 27.4963C135.405 27.4754 135.664 27.4859 135.915 27.5277V29.2928C135.664 29.2195 135.373 29.196 135.044 29.2222C134.72 29.2483 134.427 29.3398 134.165 29.4967C133.904 29.6379 133.689 29.8183 133.522 30.038C133.36 30.2576 133.24 30.5087 133.161 30.7911C133.083 31.0682 133.043 31.369 133.043 31.6932V35.9999H131.145ZM140.376 36.2352C139.33 36.2352 138.481 35.9999 137.827 35.5292C137.173 35.0585 136.776 34.397 136.634 33.5445L138.564 33.2464C138.664 33.6648 138.883 33.9943 139.223 34.2348C139.563 34.4754 139.992 34.5957 140.51 34.5957C140.965 34.5957 141.315 34.5068 141.561 34.329C141.812 34.1459 141.937 33.8975 141.937 33.5837C141.937 33.3902 141.89 33.236 141.796 33.1209C141.707 33.0006 141.509 32.8856 141.2 32.7758C140.891 32.6659 140.418 32.5273 139.78 32.36C139.069 32.1717 138.504 31.9704 138.086 31.756C137.667 31.5363 137.367 31.2774 137.184 30.9793C137.001 30.6813 136.909 30.3204 136.909 29.8968C136.909 29.3686 137.048 28.9084 137.325 28.5161C137.602 28.1239 137.989 27.8232 138.486 27.614C138.983 27.3996 139.568 27.2924 140.243 27.2924C140.902 27.2924 141.485 27.3944 141.992 27.5983C142.505 27.8023 142.918 28.0925 143.232 28.4691C143.546 28.8456 143.739 29.2875 143.812 29.7948L141.883 30.14C141.835 29.7791 141.671 29.4941 141.388 29.2849C141.111 29.0757 140.74 28.9581 140.274 28.9319C139.83 28.9058 139.472 28.9737 139.2 29.1359C138.928 29.2928 138.792 29.515 138.792 29.8027C138.792 29.9648 138.847 30.1034 138.956 30.2184C139.066 30.3335 139.286 30.4485 139.615 30.5636C139.95 30.6786 140.447 30.8198 141.106 30.9872C141.781 31.1598 142.319 31.3585 142.722 31.5834C143.13 31.803 143.423 32.0671 143.6 32.3757C143.784 32.6842 143.875 33.0582 143.875 33.4975C143.875 34.3499 143.564 35.0193 142.942 35.5057C142.324 35.992 141.469 36.2352 140.376 36.2352Z" fill="#1E3839"/>
</svg>
