<svg width="13" height="15" viewBox="0 0 13 15" fill="none" xmlns="http://www.w3.org/2000/svg">
<path fill-rule="evenodd" clip-rule="evenodd" d="M2.18902 4.19563C2.18902 3.08288 2.63106 2.0157 3.4179 1.22887C4.20473 0.442038 5.2719 0 6.38465 0C7.49741 0 8.56458 0.442038 9.35141 1.22887C10.1382 2.0157 10.5803 3.08288 10.5803 4.19563V6.38465C10.5803 7.49741 10.1382 8.56458 9.35141 9.35141C8.56458 10.1382 7.49741 10.5803 6.38465 10.5803C5.2719 10.5803 4.20473 10.1382 3.4179 9.35141C2.63106 8.56458 2.18902 7.49741 2.18902 6.38465V4.19563ZM6.38465 1.09451C5.56219 1.09451 4.77341 1.42124 4.19183 2.00281C3.61026 2.58438 3.28354 3.37316 3.28354 4.19563V6.38465C3.28282 7.16006 3.57262 7.90761 4.09581 8.47992C4.619 9.05222 5.33761 9.40776 6.10997 9.47645C6.88233 9.54513 7.6524 9.32197 8.26836 8.85096C8.88433 8.37996 9.30149 7.69528 9.43761 6.93191H7.11433C6.96919 6.93191 6.82999 6.87425 6.72736 6.77162C6.62473 6.66899 6.56707 6.5298 6.56707 6.38465C6.56707 6.23951 6.62473 6.10032 6.72736 5.99769C6.82999 5.89506 6.96919 5.8374 7.11433 5.8374H9.48577V4.74289H7.11433C6.96919 4.74289 6.82999 4.68523 6.72736 4.5826C6.62473 4.47997 6.56707 4.34077 6.56707 4.19563C6.56707 4.05049 6.62473 3.91129 6.72736 3.80866C6.82999 3.70603 6.96919 3.64837 7.11433 3.64837H9.43761C9.30921 2.93215 8.93304 2.28389 8.37492 1.81702C7.81681 1.35014 7.1123 1.09439 6.38465 1.09451ZM0.547256 5.10772C0.692397 5.10772 0.831594 5.16538 0.934225 5.26801C1.03686 5.37064 1.09451 5.50984 1.09451 5.65498V6.38465C1.09451 7.07937 1.23135 7.76727 1.4972 8.4091C1.76305 9.05093 2.15272 9.63412 2.64396 10.1253C3.13519 10.6166 3.71837 11.0063 4.3602 11.2721C5.00203 11.538 5.68994 11.6748 6.38465 11.6748C7.07937 11.6748 7.76727 11.538 8.4091 11.2721C9.05093 11.0063 9.63412 10.6166 10.1253 10.1253C10.6166 9.63412 11.0063 9.05093 11.2721 8.4091C11.538 7.76727 11.6748 7.07937 11.6748 6.38465V5.65498C11.6748 5.50984 11.7325 5.37064 11.8351 5.26801C11.9377 5.16538 12.0769 5.10772 12.2221 5.10772C12.3672 5.10772 12.5064 5.16538 12.609 5.26801C12.7117 5.37064 12.7693 5.50984 12.7693 5.65498V6.38465C12.7693 7.98326 12.1697 9.52372 11.0888 10.7016C10.008 11.8794 8.52463 12.6089 6.93191 12.746V14.4111C6.93191 14.5562 6.87425 14.6954 6.77162 14.798C6.66899 14.9007 6.5298 14.9583 6.38465 14.9583C6.23951 14.9583 6.10032 14.9007 5.99769 14.798C5.89506 14.6954 5.8374 14.5562 5.8374 14.4111V12.746C4.24468 12.6089 2.76131 11.8794 1.68047 10.7016C0.599625 9.52372 -3.69238e-05 7.98326 1.70523e-09 6.38465V5.65498C1.70523e-09 5.50984 0.0576571 5.37064 0.160288 5.26801C0.262918 5.16538 0.402115 5.10772 0.547256 5.10772Z" fill="white"/>
</svg>
