<svg width="21" height="20" viewBox="0 0 21 20" fill="none" xmlns="http://www.w3.org/2000/svg">
<path d="M4.87481 15.6249C4.87481 15.7907 4.80896 15.9497 4.69175 16.0669C4.57454 16.1841 4.41557 16.2499 4.24981 16.2499C4.08405 16.2499 3.92508 16.1841 3.80787 16.0669C3.69066 15.9497 3.62481 15.7907 3.62481 15.6249V4.63369L2.19231 6.06744C2.1342 6.12555 2.06522 6.17165 1.98929 6.2031C1.91337 6.23455 1.83199 6.25073 1.74981 6.25073C1.66763 6.25073 1.58626 6.23455 1.51033 6.2031C1.43441 6.17165 1.36542 6.12555 1.30731 6.06744C1.2492 6.00933 1.20311 5.94035 1.17166 5.86442C1.14021 5.7885 1.12402 5.70712 1.12402 5.62494C1.12402 5.54276 1.14021 5.46139 1.17166 5.38546C1.20311 5.30954 1.2492 5.24055 1.30731 5.18244L3.80731 2.68369L3.81606 2.67494C3.93387 2.56142 4.0915 2.49862 4.25509 2.50002C4.41869 2.50143 4.57522 2.56692 4.69106 2.68244L7.19106 5.18244C7.24917 5.24047 7.29528 5.30938 7.32676 5.38522C7.35824 5.46107 7.37448 5.54238 7.37454 5.6245C7.37459 5.70662 7.35848 5.78795 7.3271 5.86384C7.29573 5.93974 7.24972 6.00871 7.19169 6.06682C7.13366 6.12493 7.06475 6.17104 6.98891 6.20252C6.91306 6.234 6.83175 6.25023 6.74963 6.25029C6.66751 6.25035 6.58618 6.23423 6.51029 6.20286C6.43439 6.17148 6.36542 6.12547 6.30731 6.06744L4.87481 4.63369V15.6249ZM9.24981 4.37494C9.24981 4.20918 9.31566 4.05021 9.43287 3.933C9.55008 3.81579 9.70905 3.74994 9.87481 3.74994H18.6248C18.7906 3.74994 18.9495 3.81579 19.0668 3.933C19.184 4.05021 19.2498 4.20918 19.2498 4.37494C19.2498 4.5407 19.184 4.69967 19.0668 4.81688C18.9495 4.93409 18.7906 4.99994 18.6248 4.99994H9.87481C9.70905 4.99994 9.55008 4.93409 9.43287 4.81688C9.31566 4.69967 9.24981 4.5407 9.24981 4.37494ZM9.87481 7.49994C9.70905 7.49994 9.55008 7.56579 9.43287 7.683C9.31566 7.80021 9.24981 7.95918 9.24981 8.12494C9.24981 8.2907 9.31566 8.44967 9.43287 8.56688C9.55008 8.68409 9.70905 8.74994 9.87481 8.74994H16.1248C16.2906 8.74994 16.4495 8.68409 16.5668 8.56688C16.684 8.44967 16.7498 8.2907 16.7498 8.12494C16.7498 7.95918 16.684 7.80021 16.5668 7.683C16.4495 7.56579 16.2906 7.49994 16.1248 7.49994H9.87481ZM9.87481 11.2499C9.70905 11.2499 9.55008 11.3158 9.43287 11.433C9.31566 11.5502 9.24981 11.7092 9.24981 11.8749C9.24981 12.0407 9.31566 12.1997 9.43287 12.3169C9.55008 12.4341 9.70905 12.4999 9.87481 12.4999H13.6248C13.7906 12.4999 13.9495 12.4341 14.0668 12.3169C14.184 12.1997 14.2498 12.0407 14.2498 11.8749C14.2498 11.7092 14.184 11.5502 14.0668 11.433C13.9495 11.3158 13.7906 11.2499 13.6248 11.2499H9.87481ZM9.87481 14.9999C9.70905 14.9999 9.55008 15.0658 9.43287 15.183C9.31566 15.3002 9.24981 15.4592 9.24981 15.6249C9.24981 15.7907 9.31566 15.9497 9.43287 16.0669C9.55008 16.1841 9.70905 16.2499 9.87481 16.2499H11.1248C11.2906 16.2499 11.4495 16.1841 11.5668 16.0669C11.684 15.9497 11.7498 15.7907 11.7498 15.6249C11.7498 15.4592 11.684 15.3002 11.5668 15.183C11.4495 15.0658 11.2906 14.9999 11.1248 14.9999H9.87481Z" fill="#282727"/>
</svg>
