<?xml version="1.0" encoding="UTF-8"?>
<svg xmlns="http://www.w3.org/2000/svg" xmlns:xlink="http://www.w3.org/1999/xlink">
    <symbol id="arrow-diagonal" width="12" height="12" viewBox="0 0 12 12" fill="none">
        <path d="M1 11L11 1M11 1V11M11 1H1" stroke="#B52E51" stroke-width="1.5" stroke-linecap="round" stroke-linejoin="round"/>
    </symbol>

    <symbol id="arrow-down" width="8" height="8" viewBox="0 0 8 8" fill="none">
        <path d="M1 3L4 6L7 3" stroke="#282727" stroke-linecap="round" stroke-linejoin="round"/>
    </symbol>

    <symbol id="arrow-left" width="7" height="11" viewBox="0 0 7 11" fill="none">
        <path fill-rule="evenodd" clip-rule="evenodd" d="M6.03033 0.53033C5.73744 0.237437 5.26256 0.237437 4.96967 0.53033L0.727029 4.77297C0.434136 5.06586 0.434136 5.54074 0.727029 5.83363L4.96967 10.0763C5.26256 10.3692 5.73744 10.3692 6.03033 10.0763C6.32322 9.78338 6.32322 9.3085 6.03033 9.01561L2.31802 5.3033L6.03033 1.59099C6.32322 1.2981 6.32322 0.823223 6.03033 0.53033Z" fill="#E0E0E0"/>
    </symbol>

    <symbol id="arrow-right" width="7" height="11" viewBox="0 0 7 11" fill="none">
        <path fill-rule="evenodd" clip-rule="evenodd" d="M0.96967 0.53033C1.26256 0.237437 1.73744 0.237437 2.03033 0.53033L6.27297 4.77297C6.56586 5.06586 6.56586 5.54074 6.27297 5.83363L2.03033 10.0763C1.73744 10.3692 1.26256 10.3692 0.96967 10.0763C0.676777 9.78338 0.676777 9.3085 0.96967 9.01561L4.68198 5.3033L0.96967 1.59099C0.676777 1.2981 0.676777 0.823223 0.96967 0.53033Z" fill="white"/>
    </symbol>

    <symbol id="arrow-mini-right" width="7" height="12" viewBox="0 0 7 12" fill="none">
        <path d="M1 1L6 6L1 11" stroke="#ABA9A8"/>
    </symbol>

    <symbol id="camera" width="16" height="15" viewBox="0 0 16 15" fill="none">
        <path d="M14.25 2.53125H12.0008L10.8906 0.864844C10.8477 0.800577 10.7896 0.747904 10.7215 0.711511C10.6533 0.675119 10.5773 0.656136 10.5 0.656251H5.5C5.42274 0.656136 5.34665 0.675119 5.2785 0.711511C5.21035 0.747904 5.15225 0.800577 5.10938 0.864844L3.99844 2.53125H1.75C1.29416 2.53125 0.856988 2.71233 0.53466 3.03466C0.212332 3.35699 0.03125 3.79416 0.03125 4.25V13C0.03125 13.4558 0.212332 13.893 0.53466 14.2153C0.856988 14.5377 1.29416 14.7188 1.75 14.7188H14.25C14.7058 14.7188 15.143 14.5377 15.4653 14.2153C15.7877 13.893 15.9688 13.4558 15.9688 13V4.25C15.9688 3.79416 15.7877 3.35699 15.4653 3.03466C15.143 2.71233 14.7058 2.53125 14.25 2.53125ZM15.0312 13C15.0312 13.2072 14.9489 13.4059 14.8024 13.5524C14.6559 13.6989 14.4572 13.7812 14.25 13.7812H1.75C1.5428 13.7812 1.34409 13.6989 1.19757 13.5524C1.05106 13.4059 0.96875 13.2072 0.96875 13V4.25C0.96875 4.0428 1.05106 3.84409 1.19757 3.69757C1.34409 3.55106 1.5428 3.46875 1.75 3.46875H4.25C4.32726 3.46887 4.40335 3.44988 4.4715 3.41349C4.53965 3.3771 4.59775 3.32442 4.64062 3.26016L5.75078 1.59375H10.2484L11.3594 3.26016C11.4023 3.32442 11.4604 3.3771 11.5285 3.41349C11.5967 3.44988 11.6727 3.46887 11.75 3.46875H14.25C14.4572 3.46875 14.6559 3.55106 14.8024 3.69757C14.9489 3.84409 15.0312 4.0428 15.0312 4.25V13ZM8 5.03125C7.35103 5.03125 6.71663 5.22369 6.17704 5.58424C5.63744 5.94479 5.21687 6.45725 4.96852 7.05682C4.72017 7.65639 4.65519 8.31614 4.7818 8.95264C4.90841 9.58914 5.22091 10.1738 5.67981 10.6327C6.1387 11.0916 6.72336 11.4041 7.35986 11.5307C7.99636 11.6573 8.65611 11.5923 9.25568 11.344C9.85525 11.0956 10.3677 10.6751 10.7283 10.1355C11.0888 9.59587 11.2812 8.96147 11.2812 8.3125C11.2812 7.44226 10.9355 6.60766 10.3202 5.99231C9.70484 5.37695 8.87024 5.03125 8 5.03125ZM8 10.6562C7.53645 10.6562 7.08331 10.5188 6.69788 10.2613C6.31245 10.0037 6.01205 9.63768 5.83466 9.20941C5.65726 8.78115 5.61085 8.3099 5.70128 7.85526C5.79172 7.40061 6.01494 6.983 6.34272 6.65522C6.6705 6.32744 7.08811 6.10422 7.54276 6.01378C7.9974 5.92335 8.46865 5.96977 8.89691 6.14716C9.32518 6.32455 9.69122 6.62496 9.94876 7.01038C10.2063 7.39581 10.3438 7.84895 10.3438 8.3125C10.3438 8.9341 10.0968 9.53024 9.65728 9.96978C9.21774 10.4093 8.6216 10.6562 8 10.6562Z" fill="white"/>
    </symbol>

    <symbol id="cross" width="24" height="24" viewBox="0 0 24 24" fill="none">
        <path d="M17.6572 6.34314L6.34352 17.6568" stroke="#282727" stroke-width="1.5" stroke-linecap="round"/>
        <path d="M17.6572 17.6569L6.34352 6.34315" stroke="#282727" stroke-width="1.5" stroke-linecap="round"/>
    </symbol>

    <symbol id="empty-like" width="24" height="24" viewBox="0 0 24 24" fill="none">
        <g clip-path="url(#clip0_1227_1772)">
            <rect width="24" height="24" rx="12" fill="#187A6B"/>
            <path d="M19.3334 10.6667C19.3334 10.3131 19.1929 9.97399 18.9428 9.72394C18.6928 9.47389 18.3536 9.33342 18 9.33342H13.7867L14.4267 6.28675C14.44 6.22008 14.4467 6.14675 14.4467 6.07341C14.4467 5.80008 14.3334 5.54675 14.1534 5.36675L13.4467 4.66675L9.06002 9.05341C8.81335 9.30008 8.66669 9.63341 8.66669 10.0001V16.6667C8.66669 17.0204 8.80716 17.3595 9.05721 17.6096C9.30726 17.8596 9.6464 18.0001 10 18.0001H16C16.5534 18.0001 17.0267 17.6667 17.2267 17.1867L19.24 12.4867C19.3 12.3334 19.3334 12.1734 19.3334 12.0001V10.6667ZM4.66669 18.0001H7.33335V10.0001H4.66669V18.0001Z" fill="white"/>
        </g>
        <defs>
            <clipPath>
                <rect width="24" height="24" rx="12" fill="white"/>
            </clipPath>
        </defs>
    </symbol>

    <symbol id="gold-cup" width="24" height="24" viewBox="0 0 24 24" fill="none">
        <path d="M22 8.16192V8.23492C22 9.09492 22 9.52592 21.793 9.87792C21.586 10.2299 21.209 10.4389 20.457 10.8579L19.664 11.2979C20.21 9.44992 20.393 7.46392 20.46 5.76592L20.47 5.54492L20.472 5.49292C21.123 5.71892 21.489 5.88792 21.717 6.20392C22 6.59692 22 7.11892 22 8.16192ZM2 8.16192V8.23492C2 9.09492 2 9.52592 2.207 9.87792C2.414 10.2299 2.791 10.4389 3.543 10.8579L4.337 11.2979C3.79 9.44992 3.607 7.46392 3.54 5.76592L3.53 5.54492L3.529 5.49292C2.877 5.71892 2.511 5.88792 2.283 6.20392C2 6.59692 2 7.11992 2 8.16192Z" fill="#E8B24E"/>
        <path fill-rule="evenodd" clip-rule="evenodd" d="M12 1.99998C13.784 1.99998 15.253 2.15698 16.377 2.34698C17.516 2.53898 18.085 2.63498 18.561 3.22098C19.037 3.80698 19.011 4.43998 18.961 5.70598C18.789 10.055 17.851 15.486 12.75 15.966V19.5H14.18C14.4111 19.5001 14.635 19.5803 14.8136 19.7269C14.9923 19.8734 15.1147 20.0774 15.16 20.304L15.35 21.25H18C18.1989 21.25 18.3897 21.329 18.5303 21.4697C18.671 21.6103 18.75 21.8011 18.75 22C18.75 22.1989 18.671 22.3897 18.5303 22.5303C18.3897 22.671 18.1989 22.75 18 22.75H5.99997C5.80106 22.75 5.61029 22.671 5.46964 22.5303C5.32899 22.3897 5.24997 22.1989 5.24997 22C5.24997 21.8011 5.32899 21.6103 5.46964 21.4697C5.61029 21.329 5.80106 21.25 5.99997 21.25H8.64997L8.83997 20.304C8.88527 20.0774 9.00765 19.8734 9.18631 19.7269C9.36497 19.5803 9.58888 19.5001 9.81997 19.5H11.25V15.966C6.14997 15.486 5.21197 10.054 5.03997 5.70598C4.98897 4.43998 4.96397 3.80598 5.43997 3.22098C5.91497 2.63498 6.48397 2.53898 7.62297 2.34698C9.06981 2.10998 10.5339 1.99391 12 1.99998ZM12.952 6.19898L12.854 6.02298C12.474 5.33998 12.284 4.99998 12 4.99998C11.716 4.99998 11.526 5.33998 11.146 6.02298L11.048 6.19898C10.94 6.39298 10.886 6.48898 10.802 6.55298C10.717 6.61698 10.612 6.64098 10.402 6.68798L10.212 6.73198C9.47397 6.89898 9.10497 6.98198 9.01697 7.26398C8.92897 7.54598 9.18097 7.84098 9.68397 8.42898L9.81397 8.58098C9.95697 8.74798 10.029 8.83098 10.061 8.93498C10.093 9.03898 10.082 9.14998 10.061 9.37298L10.041 9.57598C9.96497 10.361 9.92697 10.754 10.156 10.928C10.386 11.102 10.732 10.943 11.423 10.625L11.601 10.543C11.798 10.453 11.896 10.408 12 10.408C12.104 10.408 12.202 10.453 12.399 10.543L12.577 10.625C13.268 10.944 13.614 11.102 13.844 10.928C14.074 10.754 14.035 10.361 13.959 9.57598L13.939 9.37298C13.918 9.14998 13.907 9.03898 13.939 8.93498C13.971 8.83098 14.043 8.74798 14.186 8.58098L14.316 8.42898C14.819 7.84098 15.071 7.54698 14.983 7.26398C14.895 6.98198 14.526 6.89898 13.788 6.73198L13.598 6.68798C13.388 6.64098 13.283 6.61798 13.198 6.55298C13.114 6.48898 13.06 6.39298 12.952 6.19898Z" fill="#E8B24E"/>
    </symbol>

    <symbol id="gold-star" width="16" height="15" viewBox="0 0 16 15" fill="none"><path d="M7.99994 12.3921L11.4583 14.4838C12.0916 14.8671 12.8666 14.3005 12.6999 13.5838L11.7833 9.65045L14.8416 7.00046C15.3999 6.51712 15.0999 5.60046 14.3666 5.54212L10.3416 5.20046L8.76661 1.48379C8.48327 0.808789 7.51661 0.808789 7.23327 1.48379L5.65827 5.19212L1.63327 5.53379C0.899939 5.59212 0.599938 6.50879 1.15827 6.99212L4.21661 9.64212L3.29994 13.5755C3.13327 14.2921 3.90827 14.8588 4.5416 14.4755L7.99994 12.3921Z" fill="#E8B24E"/>
    </symbol>

    <symbol id="heart-empty" width="24" height="24" viewBox="0 0 24 24" fill="none">
        <g clip-path="url(#clip0_1161_671)">
            <path d="M16.6875 3.5C14.7516 3.5 13.0566 4.3325 12 5.73969C10.9434 4.3325 9.24844 3.5 7.3125 3.5C5.77146 3.50174 4.29404 4.11468 3.20436 5.20436C2.11468 6.29404 1.50174 7.77146 1.5 9.3125C1.5 15.875 11.2303 21.1869 11.6447 21.4062C11.7539 21.465 11.876 21.4958 12 21.4958C12.124 21.4958 12.2461 21.465 12.3553 21.4062C12.7697 21.1869 22.5 15.875 22.5 9.3125C22.4983 7.77146 21.8853 6.29404 20.7956 5.20436C19.706 4.11468 18.2285 3.50174 16.6875 3.5ZM12 19.8875C10.2881 18.89 3 14.3459 3 9.3125C3.00149 8.16921 3.45632 7.07317 4.26475 6.26475C5.07317 5.45632 6.16921 5.00149 7.3125 5C9.13594 5 10.6669 5.97125 11.3062 7.53125C11.3628 7.66881 11.4589 7.78646 11.5824 7.86926C11.7059 7.95207 11.8513 7.99627 12 7.99627C12.1487 7.99627 12.2941 7.95207 12.4176 7.86926C12.5411 7.78646 12.6372 7.66881 12.6937 7.53125C13.3331 5.96844 14.8641 5 16.6875 5C17.8308 5.00149 18.9268 5.45632 19.7353 6.26475C20.5437 7.07317 20.9985 8.16921 21 9.3125C21 14.3384 13.71 18.8891 12 19.8875Z" fill="#282727"/>
        </g>
        <defs>
            <clipPath>
                <rect width="24" height="24" fill="white"/>
            </clipPath>
        </defs>
    </symbol>

    <symbol id="lens" width="20" height="22" viewBox="0 0 20 22" fill="none">
        <path fill-rule="evenodd" clip-rule="evenodd" d="M8.50025 1.91687e-08C7.14485 0.000115492 5.80912 0.324364 4.60451 0.945694C3.3999 1.56702 2.36135 2.46742 1.57549 3.57175C0.789633 4.67609 0.279263 5.95235 0.0869618 7.29404C-0.10534 8.63574 0.0260029 10.004 0.470032 11.2846C0.914061 12.5652 1.6579 13.7211 2.63949 14.6557C3.62108 15.5904 4.81196 16.2768 6.11277 16.6576C7.41358 17.0384 8.7866 17.1026 10.1173 16.8449C11.448 16.5872 12.6977 16.015 13.7623 15.176L17.4143 18.828C17.6029 19.0102 17.8555 19.111 18.1177 19.1087C18.3799 19.1064 18.6307 19.0012 18.8161 18.8158C19.0015 18.6304 19.1066 18.3796 19.1089 18.1174C19.1112 17.8552 19.0104 17.6026 18.8283 17.414L15.1763 13.762C16.1642 12.5086 16.7794 11.0024 16.9514 9.41573C17.1233 7.82905 16.8451 6.22602 16.1485 4.79009C15.4519 3.35417 14.3651 2.14336 13.0126 1.29623C11.66 0.449106 10.0962 -0.000107143 8.50025 1.91687e-08ZM2.00025 8.5C2.00025 6.77609 2.68507 5.12279 3.90406 3.90381C5.12305 2.68482 6.77635 2 8.50025 2C10.2242 2 11.8775 2.68482 13.0964 3.90381C14.3154 5.12279 15.0003 6.77609 15.0003 8.5C15.0003 10.2239 14.3154 11.8772 13.0964 13.0962C11.8775 14.3152 10.2242 15 8.50025 15C6.77635 15 5.12305 14.3152 3.90406 13.0962C2.68507 11.8772 2.00025 10.2239 2.00025 8.5Z" fill="#ABA9A8"/>
    </symbol>

    <symbol id="micro" width="13" height="15" viewBox="0 0 13 15" fill="none">
        <path fill-rule="evenodd" clip-rule="evenodd" d="M2.18902 4.19563C2.18902 3.08288 2.63106 2.0157 3.4179 1.22887C4.20473 0.442038 5.2719 0 6.38465 0C7.49741 0 8.56458 0.442038 9.35141 1.22887C10.1382 2.0157 10.5803 3.08288 10.5803 4.19563V6.38465C10.5803 7.49741 10.1382 8.56458 9.35141 9.35141C8.56458 10.1382 7.49741 10.5803 6.38465 10.5803C5.2719 10.5803 4.20473 10.1382 3.4179 9.35141C2.63106 8.56458 2.18902 7.49741 2.18902 6.38465V4.19563ZM6.38465 1.09451C5.56219 1.09451 4.77341 1.42124 4.19183 2.00281C3.61026 2.58438 3.28354 3.37316 3.28354 4.19563V6.38465C3.28282 7.16006 3.57262 7.90761 4.09581 8.47992C4.619 9.05222 5.33761 9.40776 6.10997 9.47645C6.88233 9.54513 7.6524 9.32197 8.26836 8.85096C8.88433 8.37996 9.30149 7.69528 9.43761 6.93191H7.11433C6.96919 6.93191 6.82999 6.87425 6.72736 6.77162C6.62473 6.66899 6.56707 6.5298 6.56707 6.38465C6.56707 6.23951 6.62473 6.10032 6.72736 5.99769C6.82999 5.89506 6.96919 5.8374 7.11433 5.8374H9.48577V4.74289H7.11433C6.96919 4.74289 6.82999 4.68523 6.72736 4.5826C6.62473 4.47997 6.56707 4.34077 6.56707 4.19563C6.56707 4.05049 6.62473 3.91129 6.72736 3.80866C6.82999 3.70603 6.96919 3.64837 7.11433 3.64837H9.43761C9.30921 2.93215 8.93304 2.28389 8.37492 1.81702C7.81681 1.35014 7.1123 1.09439 6.38465 1.09451ZM0.547256 5.10772C0.692397 5.10772 0.831594 5.16538 0.934225 5.26801C1.03686 5.37064 1.09451 5.50984 1.09451 5.65498V6.38465C1.09451 7.07937 1.23135 7.76727 1.4972 8.4091C1.76305 9.05093 2.15272 9.63412 2.64396 10.1253C3.13519 10.6166 3.71837 11.0063 4.3602 11.2721C5.00203 11.538 5.68994 11.6748 6.38465 11.6748C7.07937 11.6748 7.76727 11.538 8.4091 11.2721C9.05093 11.0063 9.63412 10.6166 10.1253 10.1253C10.6166 9.63412 11.0063 9.05093 11.2721 8.4091C11.538 7.76727 11.6748 7.07937 11.6748 6.38465V5.65498C11.6748 5.50984 11.7325 5.37064 11.8351 5.26801C11.9377 5.16538 12.0769 5.10772 12.2221 5.10772C12.3672 5.10772 12.5064 5.16538 12.609 5.26801C12.7117 5.37064 12.7693 5.50984 12.7693 5.65498V6.38465C12.7693 7.98326 12.1697 9.52372 11.0888 10.7016C10.008 11.8794 8.52463 12.6089 6.93191 12.746V14.4111C6.93191 14.5562 6.87425 14.6954 6.77162 14.798C6.66899 14.9007 6.5298 14.9583 6.38465 14.9583C6.23951 14.9583 6.10032 14.9007 5.99769 14.798C5.89506 14.6954 5.8374 14.5562 5.8374 14.4111V12.746C4.24468 12.6089 2.76131 11.8794 1.68047 10.7016C0.599625 9.52372 -3.69238e-05 7.98326 1.70523e-09 6.38465V5.65498C1.70523e-09 5.50984 0.0576571 5.37064 0.160288 5.26801C0.262918 5.16538 0.402115 5.10772 0.547256 5.10772Z" fill="white"/>
    </symbol>

    <symbol id="update" width="14" height="14" viewBox="0 0 14 14" fill="none">
        <path d="M7.01628 13.6673C6.09184 13.6673 5.22545 13.4934 4.41711 13.1457C3.60878 12.7979 2.90267 12.3218 2.29878 11.7173C1.69489 11.1129 1.21878 10.4068 0.870448 9.59898C0.522115 8.79121 0.348504 7.9251 0.349615 7.00065C0.350726 6.07621 0.524615 5.2101 0.871281 4.40232C1.21795 3.59454 1.69406 2.88843 2.29961 2.28398C2.90517 1.67954 3.61073 1.20343 4.41628 0.855651C5.22184 0.507873 6.08823 0.333984 7.01545 0.333984C7.97267 0.333984 8.88434 0.531762 9.75045 0.927318C10.6166 1.32232 11.3716 1.87343 12.0154 2.58065V0.590651H12.8488V4.05232H9.38795V3.21898H11.4546C10.8746 2.5801 10.2052 2.07843 9.44628 1.71398C8.6885 1.34954 7.8785 1.16732 7.01628 1.16732C5.39073 1.16732 4.01211 1.73343 2.88045 2.86565C1.74878 3.99787 1.18267 5.37621 1.18211 7.00065C1.18156 8.6251 1.74767 10.0037 2.88045 11.1365C4.01323 12.2693 5.39156 12.8351 7.01545 12.834C8.47378 12.834 9.74295 12.359 10.8229 11.409C11.9029 10.459 12.5557 9.26732 12.7813 7.83398H13.6246C13.4268 9.51232 12.6991 10.904 11.4413 12.009C10.1835 13.1145 8.7085 13.6673 7.01628 13.6673Z" fill="white"/>
    </symbol>

    <symbol id="webcam" width="16" height="12" viewBox="0 0 16 12" fill="none">
        <path d="M0.5 9.1276V2.8776C0.5 2.43558 0.675595 2.01165 0.988155 1.69909C1.30072 1.38653 1.72464 1.21094 2.16667 1.21094H9.25C9.69203 1.21094 10.116 1.38653 10.4285 1.69909C10.7411 2.01165 10.9167 2.43558 10.9167 2.8776V9.1276C10.9167 9.56963 10.7411 9.99355 10.4285 10.3061C10.116 10.6187 9.69203 10.7943 9.25 10.7943H2.16667C1.72464 10.7943 1.30072 10.6187 0.988155 10.3061C0.675595 9.99355 0.5 9.56963 0.5 9.1276ZM14.8067 1.82844L11.4733 4.7976C11.4294 4.83662 11.3942 4.88448 11.3701 4.93805C11.346 4.99162 11.3334 5.04968 11.3333 5.10844V6.5901C11.3334 6.64886 11.346 6.70692 11.3701 6.76049C11.3942 6.81406 11.4294 6.86193 11.4733 6.90094L14.8067 9.8701C14.8667 9.92344 14.9409 9.95827 15.0203 9.97042C15.0997 9.98257 15.1809 9.97151 15.2542 9.93858C15.3274 9.90565 15.3896 9.85225 15.4332 9.78481C15.4768 9.71737 15.5 9.63875 15.5 9.55844V2.1401C15.5 2.05979 15.4768 1.98118 15.4332 1.91373C15.3896 1.84629 15.3274 1.79289 15.2542 1.75996C15.1809 1.72703 15.0997 1.71597 15.0203 1.72812C14.9409 1.74027 14.8667 1.77511 14.8067 1.82844Z" stroke="white" stroke-linecap="round" stroke-linejoin="round"/>
    </symbol>

    <symbol id="white-star" width="24" height="25" viewBox="0 0 24 25" fill="none">
        <g clip-path="url(#clip0_1295_867)">
            <rect y="0.5" width="24" height="24" rx="12" fill="#E8B24E"/>
            <path d="M12.0003 17.7698L16.1503 20.2798C16.9103 20.7398 17.8403 20.0598 17.6403 19.1998L16.5403 14.4798L20.2103 11.2998C20.8803 10.7198 20.5203 9.61977 19.6403 9.54977L14.8103 9.13977L12.9203 4.67977C12.5803 3.86977 11.4203 3.86977 11.0803 4.67977L9.19032 9.12977L4.36032 9.53977C3.48032 9.60977 3.12032 10.7098 3.79032 11.2898L7.46032 14.4698L6.36032 19.1898C6.16032 20.0498 7.09032 20.7298 7.85032 20.2698L12.0003 17.7698Z" fill="white"/>
        </g>
        <defs>
            <clipPath>
                <rect y="0.5" width="24" height="24" rx="12" fill="white"/>
            </clipPath>
        </defs>
    </symbol>

    <symbol id="plus" width="24" height="24" viewBox="0 0 24 24" fill="none">
        <path d="M12 4V20" stroke="white" stroke-width="1.5" stroke-linecap="round"/>
        <path d="M20 12L4 12" stroke="white" stroke-width="1.5" stroke-linecap="round"/>
    </symbol>
</svg>
