<?xml version="1.0" encoding="UTF-8"?>
<svg xmlns="http://www.w3.org/2000/svg" xmlns:xlink="http://www.w3.org/1999/xlink" width="0" height="0">
    <symbol id="icon-face" width="24" height="24" viewBox="0 0 24 24" fill="none">
        <path d="M12.875 10.875H15.3125V13.3125H12.875V19H10.4375V13.3125H8V10.875H10.4375V9.85531C10.4375 8.88925 10.7414 7.66887 11.3459 7.00181C11.9504 6.33312 12.7052 6 13.6095 6H15.3125V8.4375H13.6062C13.2016 8.4375 12.875 8.76413 12.875 9.16794V10.875Z" fill="white"/>
    </symbol>

    <symbol id="icon-in" width="16" height="16" viewBox="0 0 16 16" fill="none">
        <path d="M4.40774 2.43678C4.40774 2.72095 4.32348 2.99874 4.1656 3.23501C4.00773 3.47129 3.78333 3.65545 3.52079 3.76419C3.25826 3.87294 2.96937 3.90139 2.69066 3.84596C2.41195 3.79052 2.15594 3.65368 1.955 3.45274C1.75407 3.2518 1.61723 2.99579 1.56179 2.71708C1.50635 2.43838 1.5348 2.14949 1.64355 1.88695C1.7523 1.62441 1.93645 1.40002 2.17273 1.24214C2.40901 1.08427 2.68679 1 2.97096 1C3.35202 1 3.71747 1.15137 3.98692 1.42082C4.25637 1.69027 4.40774 2.05572 4.40774 2.43678ZM2.97096 5.31034C2.71692 5.31034 2.47329 5.41126 2.29366 5.59089C2.11402 5.77053 2.01311 6.01416 2.01311 6.2682V13.931C2.01311 14.1851 2.11402 14.4287 2.29366 14.6083C2.47329 14.788 2.71692 14.8889 2.97096 14.8889C3.225 14.8889 3.46863 14.788 3.64827 14.6083C3.8279 14.4287 3.92882 14.1851 3.92882 13.931V6.2682C3.92882 6.01416 3.8279 5.77053 3.64827 5.59089C3.46863 5.41126 3.225 5.31034 2.97096 5.31034ZM10.1549 5.31034C9.29257 5.3103 8.45008 5.56888 7.73629 6.05268C7.68391 5.82284 7.54862 5.62039 7.35631 5.48407C7.164 5.34774 6.92817 5.28712 6.69396 5.31381C6.45974 5.34049 6.24359 5.4526 6.08687 5.62869C5.93015 5.80478 5.84386 6.03247 5.84453 6.2682V13.931C5.84453 14.1851 5.94544 14.4287 6.12507 14.6083C6.30471 14.788 6.54834 14.8889 6.80238 14.8889C7.05642 14.8889 7.30005 14.788 7.47968 14.6083C7.65932 14.4287 7.76023 14.1851 7.76023 13.931V9.62069C7.76023 8.98559 8.01253 8.37651 8.46161 7.92743C8.91069 7.47834 9.51977 7.22605 10.1549 7.22605C10.79 7.22605 11.3991 7.47834 11.8481 7.92743C12.2972 8.37651 12.5495 8.98559 12.5495 9.62069V13.931C12.5495 14.1851 12.6504 14.4287 12.8301 14.6083C13.0097 14.788 13.2533 14.8889 13.5074 14.8889C13.7614 14.8889 14.005 14.788 14.1847 14.6083C14.3643 14.4287 14.4652 14.1851 14.4652 13.931V9.62069C14.4652 8.47751 14.0111 7.38116 13.2027 6.57282C12.3944 5.76447 11.298 5.31034 10.1549 5.31034Z" fill="white"/>
    </symbol>

    <symbol id="icon-inst" width="16" height="16" viewBox="0 0 16 16" fill="none">
        <path d="M5.19967 1.33398H10.7997C12.933 1.33398 14.6663 3.06732 14.6663 5.20065V10.8007C14.6663 11.8262 14.259 12.8097 13.5338 13.5348C12.8087 14.2599 11.8252 14.6673 10.7997 14.6673H5.19967C3.06634 14.6673 1.33301 12.934 1.33301 10.8007V5.20065C1.33301 4.17515 1.74039 3.19165 2.46553 2.4665C3.19067 1.74136 4.17417 1.33398 5.19967 1.33398ZM5.06634 2.66732C4.42982 2.66732 3.81937 2.92017 3.36928 3.37026C2.9192 3.82035 2.66634 4.4308 2.66634 5.06732V10.934C2.66634 12.2606 3.73967 13.334 5.06634 13.334H10.933C11.5695 13.334 12.18 13.0811 12.6301 12.631C13.0802 12.181 13.333 11.5705 13.333 10.934V5.06732C13.333 3.74065 12.2597 2.66732 10.933 2.66732H5.06634ZM11.4997 3.66732C11.7207 3.66732 11.9326 3.75512 12.0889 3.9114C12.2452 4.06768 12.333 4.27964 12.333 4.50065C12.333 4.72166 12.2452 4.93363 12.0889 5.08991C11.9326 5.24619 11.7207 5.33398 11.4997 5.33398C11.2787 5.33398 11.0667 5.24619 10.9104 5.08991C10.7541 4.93363 10.6663 4.72166 10.6663 4.50065C10.6663 4.27964 10.7541 4.06768 10.9104 3.9114C11.0667 3.75512 11.2787 3.66732 11.4997 3.66732ZM7.99967 4.66732C8.88373 4.66732 9.73158 5.01851 10.3567 5.64363C10.9818 6.26875 11.333 7.1166 11.333 8.00065C11.333 8.88471 10.9818 9.73255 10.3567 10.3577C9.73158 10.9828 8.88373 11.334 7.99967 11.334C7.11562 11.334 6.26777 10.9828 5.64265 10.3577C5.01753 9.73255 4.66634 8.88471 4.66634 8.00065C4.66634 7.1166 5.01753 6.26875 5.64265 5.64363C6.26777 5.01851 7.11562 4.66732 7.99967 4.66732ZM7.99967 6.00065C7.46924 6.00065 6.96053 6.21136 6.58546 6.58644C6.21039 6.96151 5.99967 7.47022 5.99967 8.00065C5.99967 8.53108 6.21039 9.03979 6.58546 9.41486C6.96053 9.78994 7.46924 10.0007 7.99967 10.0007C8.53011 10.0007 9.03882 9.78994 9.41389 9.41486C9.78896 9.03979 9.99967 8.53108 9.99967 8.00065C9.99967 7.47022 9.78896 6.96151 9.41389 6.58644C9.03882 6.21136 8.53011 6.00065 7.99967 6.00065Z" fill="white"/>
    </symbol>

    <symbol id="icon-pint" width="20" height="20" viewBox="0 0 20 20" fill="none">
        <path fill-rule="evenodd" clip-rule="evenodd" d="M10 1.25C5.17201 1.25 1.25 5.17201 1.25 10C1.25 14.828 5.17201 18.75 10 18.75C14.828 18.75 18.75 14.828 18.75 10C18.75 5.17201 14.828 1.25 10 1.25ZM10 2.01088C14.4168 2.01088 17.9891 5.58322 17.9891 10C17.9891 14.4168 14.4168 17.9891 10 17.9891C9.19209 17.9891 8.41271 17.8682 7.67801 17.6458C8.00527 17.0987 8.42781 16.3166 8.59566 15.6708C8.69539 15.288 9.10539 13.7263 9.10539 13.7263C9.37184 14.235 10.1504 14.6655 10.9793 14.6655C13.446 14.6655 15.2243 12.397 15.2243 9.57795C15.2243 6.87531 13.0189 4.85373 10.1813 4.85373C6.65098 4.85373 4.77721 7.22314 4.77721 9.80309C4.77721 11.0029 5.41535 12.4965 6.43715 12.9721C6.59191 13.0442 6.67504 13.013 6.71059 12.8629C6.73793 12.749 6.87598 12.1939 6.93793 11.9356C6.95777 11.8532 6.94816 11.782 6.88148 11.7008C6.54328 11.2906 6.27219 10.5371 6.27219 9.8343C6.27219 8.03012 7.63805 6.28408 9.96508 6.28408C11.9744 6.28408 13.3816 7.65381 13.3816 9.61213C13.3816 11.8246 12.2644 13.3578 10.8107 13.3578C10.0078 13.3578 9.40666 12.6936 9.59951 11.8791C9.83072 10.9071 10.2771 9.85809 10.2771 9.1559C10.2771 8.52799 9.94018 8.0042 9.24211 8.0042C8.42133 8.0042 7.76197 8.85277 7.76197 9.99033C7.76197 10.7142 8.00717 11.2045 8.00717 11.2045C8.00717 11.2045 7.19641 14.6324 7.04791 15.2704C6.8991 15.9079 6.93896 16.7665 7.00035 17.4058C4.07326 16.2211 2.01088 13.3552 2.01088 10C2.01088 5.5832 5.5832 2.01088 10 2.01088Z" fill="white"/>
    </symbol>
</svg>
