<svg width="16" height="12" viewBox="0 0 16 12" fill="none" xmlns="http://www.w3.org/2000/svg">
<path d="M0.5 9.1276V2.8776C0.5 2.43558 0.675595 2.01165 0.988155 1.69909C1.30072 1.38653 1.72464 1.21094 2.16667 1.21094H9.25C9.69203 1.21094 10.116 1.38653 10.4285 1.69909C10.7411 2.01165 10.9167 2.43558 10.9167 2.8776V9.1276C10.9167 9.56963 10.7411 9.99355 10.4285 10.3061C10.116 10.6187 9.69203 10.7943 9.25 10.7943H2.16667C1.72464 10.7943 1.30072 10.6187 0.988155 10.3061C0.675595 9.99355 0.5 9.56963 0.5 9.1276ZM14.8067 1.82844L11.4733 4.7976C11.4294 4.83662 11.3942 4.88448 11.3701 4.93805C11.346 4.99162 11.3334 5.04968 11.3333 5.10844V6.5901C11.3334 6.64886 11.346 6.70692 11.3701 6.76049C11.3942 6.81406 11.4294 6.86193 11.4733 6.90094L14.8067 9.8701C14.8667 9.92344 14.9409 9.95827 15.0203 9.97042C15.0997 9.98257 15.1809 9.97151 15.2542 9.93858C15.3274 9.90565 15.3896 9.85225 15.4332 9.78481C15.4768 9.71737 15.5 9.63875 15.5 9.55844V2.1401C15.5 2.05979 15.4768 1.98118 15.4332 1.91373C15.3896 1.84629 15.3274 1.79289 15.2542 1.75996C15.1809 1.72703 15.0997 1.71597 15.0203 1.72812C14.9409 1.74027 14.8667 1.77511 14.8067 1.82844Z" stroke="white" stroke-linecap="round" stroke-linejoin="round"/>
</svg>
